<svg width="1440" height="89" viewBox="0 0 1440 89" fill="none" xmlns="http://www.w3.org/2000/svg">
<path fill-rule="evenodd" clip-rule="evenodd" d="M-14.4838 0H0.547863C2.06719 0.339425 3.23902 1.02636 4.06333 2.06079L6.12413 5.57626L6.73024 5.21259C6.81067 4.98133 6.89916 4.75342 6.99548 4.52925L8.27253 5.63603L7.21513 7.51583L11.5792 15.5166L14.731 9.9403L15.2159 9.4554H23.9439L24.9137 10.9101L28.308 16.9712L27.8231 18.6684L24.4288 24.4871L23.9439 24.972H15.2159L10.6094 17.6986L3.09355 3.63669C2.85382 3.15724 2.5129 2.73553 2.09431 2.40066C1.67573 2.0658 1.18947 1.82576 0.669086 1.69712H-14.605L-16.0597 2.42446L-17.2719 3.87914L-19.3992 7.62012L-20.7376 6.4601L-19.454 4.24281L-16.9083 0.969785L-14.4838 0ZM-22.7782 9.98476L-24.7878 13.4558L-26 16.3651L-25.7576 19.032L-18.2417 32.1241C-17.4174 33.3202 -16.1648 34.0879 -14.4838 34.4274H0.547863L3.21477 33.2151L4.09365 31.9306L3.82089 32.2453L2.78183 31.3448L1.88132 32.2454L0.669086 32.7302H-14.3626L-16.5446 31.7605L-24.3029 18.4259V16.2439L-21.4154 11.1659L-22.7782 9.98476ZM-2.61202 24.972L-1.9075 24.1591L1.15398 18.9108L5.27557 27.154L4.87514 27.8659L6.13044 28.9538L6.36657 28.6087L8.42737 32.3666C9.28401 33.4657 10.5366 34.1526 12.1853 34.4274H26.9745L29.399 33.4576L31.9447 30.1846L33.7962 26.9645L32.445 25.7935L29.0353 31.7605L27.3382 32.7302H12.0641C10.771 32.407 9.88205 31.8413 9.39715 31.0331L0.911533 15.2741L-2.48271 9.4554H-11.2108L-11.9381 10.1827L-15.3324 16.0015L-15.8173 17.6986L-11.2108 24.972H-2.61202ZM10.6396 2.39428L10.8518 2.18202L12.0641 1.69712H27.3382L29.2777 3.1518L36.0662 14.7892L36.7936 16.2439V18.1835L34.4679 22.2535L35.8275 23.4318L37.5209 20.4867L38.4907 18.0622L38.2483 15.3953L30.7324 2.30324C29.9081 1.10717 28.6555 0.339425 26.9745 0H12.1853L9.27593 1.21223L9.27581 1.21235L10.6396 2.39428ZM-3.93739 10.9101L-4.17984 11.1525H-10.4834L-14.1201 17.2137L-10.7259 23.0324L-10.4834 23.2748H-3.21005L-2.48271 21.5777L-0.0582523 17.6986V16.9712L-2.48271 13.0921L-3.21005 11.1525L-3.93739 10.9101ZM16.6705 10.9101L15.7008 11.1525L12.549 16.9712L12.7914 18.1835L15.7008 23.0324L15.9432 23.2748H23.2166L26.6108 17.4561L23.2166 11.1525H18.8526L18.6101 10.9101L17.3979 11.1525L16.6705 10.9101Z" fill="white" fill-opacity="0.07"/>
<path fill-rule="evenodd" clip-rule="evenodd" d="M-50.4838 52.9651H-35.4521C-33.9328 53.3046 -32.761 53.9915 -31.9367 55.0259L-29.8759 58.5414L-29.2698 58.1777C-29.1893 57.9465 -29.1008 57.7186 -29.0045 57.4944L-27.7275 58.6012L-28.7849 60.481L-24.4208 68.4817L-21.269 62.9054L-20.7841 62.4206H-12.0561L-11.0863 63.8752L-7.69204 69.9364L-8.17693 71.6335L-11.5712 77.4522L-12.0561 77.9371H-20.7841L-25.3906 70.6637L-32.9065 56.6018C-33.1462 56.1224 -33.4871 55.7007 -33.9057 55.3658C-34.3243 55.0309 -34.8105 54.7909 -35.3309 54.6623H-50.605L-52.0597 55.3896L-53.2719 56.8443L-55.3992 60.5853L-56.7376 59.4252L-55.454 57.208L-52.9083 53.9349L-50.4838 52.9651ZM-58.7782 62.9499L-60.7878 66.4209L-62 69.3303L-61.7576 71.9972L-54.2417 85.0893C-53.4174 86.2853 -52.1648 87.0531 -50.4838 87.3925H-35.4521L-32.7852 86.1803L-31.9064 84.8958L-32.1791 85.2105L-33.2182 84.31L-34.1187 85.2105L-35.3309 85.6954H-50.3626L-52.5446 84.7256L-60.3029 71.3911V69.209L-57.4154 64.1311L-58.7782 62.9499ZM-38.612 77.9371L-37.9075 77.1242L-34.846 71.876L-30.7244 80.1191L-31.1249 80.831L-29.8696 81.9189L-29.6334 81.5738L-27.5726 85.3317C-26.716 86.4308 -25.4634 87.1177 -23.8147 87.3925H-9.0255L-6.60103 86.4227L-4.05535 83.1497L-2.20383 79.9297L-3.55502 78.7587L-6.9647 84.7256L-8.66183 85.6954H-23.9359C-25.229 85.3721 -26.118 84.8064 -26.6028 83.9983L-35.0885 68.2393L-38.4827 62.4206H-47.2108L-47.9381 63.1479L-51.3324 68.9666L-51.8173 70.6637L-47.2108 77.9371H-38.612ZM-25.3604 55.3594L-25.1482 55.1472L-23.9359 54.6623H-8.66183L-6.72226 56.117L0.0662384 67.7544L0.793575 69.209V71.1486L-1.53214 75.2186L-0.17252 76.397L1.52092 73.4519L2.4907 71.0274L2.24825 68.3605L-5.26758 55.2684C-6.0919 54.0723 -7.34454 53.3046 -9.0255 52.9651H-23.8147L-26.7241 54.1774L-26.7242 54.1775L-25.3604 55.3594ZM-39.9374 63.8752L-40.1798 64.1177H-46.4834L-50.1201 70.1788L-46.7259 75.9975L-46.4834 76.24H-39.2101L-38.4827 74.5429L-36.0583 70.6637V69.9364L-38.4827 66.0572L-39.2101 64.1177L-39.9374 63.8752ZM-19.3295 63.8752L-20.2992 64.1177L-23.451 69.9364L-23.2086 71.1486L-20.2992 75.9975L-20.0568 76.24H-12.7834L-9.38916 70.4213L-12.7834 64.1177H-17.1474L-17.3899 63.8752L-18.6021 64.1177L-19.3295 63.8752Z" fill="white" fill-opacity="0.07"/>
<path fill-rule="evenodd" clip-rule="evenodd" d="M55.1661 0H70.1978C71.7171 0.339425 72.8889 1.02636 73.7132 2.06079L75.774 5.57626L76.3801 5.21259C76.4606 4.98133 76.5491 4.75342 76.6454 4.52925L77.9224 5.63603L76.865 7.51583L81.2291 15.5166L84.3809 9.9403L84.8658 9.4554H93.5938L94.5636 10.9101L97.9579 16.9712L97.473 18.6684L94.0787 24.4871L93.5938 24.972H84.8658L80.2593 17.6986L72.7435 3.63669C72.5037 3.15724 72.1628 2.73553 71.7442 2.40066C71.3256 2.0658 70.8394 1.82576 70.319 1.69712H55.0449L53.5902 2.42446L52.378 3.87914L50.2507 7.62012L48.9123 6.4601L50.196 4.24281L52.7416 0.969785L55.1661 0ZM46.8717 9.98476L44.8621 13.4558L43.6499 16.3651L43.8923 19.032L51.4082 32.1241C52.2325 33.3202 53.4851 34.0879 55.1661 34.4274H70.1978L72.8647 33.2151L73.7436 31.9306L73.4708 32.2453L72.4317 31.3448L71.5312 32.2454L70.319 32.7302H55.2873L53.1053 31.7605L45.347 18.4259V16.2439L48.2345 11.1659L46.8717 9.98476ZM67.0379 24.972L67.7424 24.1591L70.8039 18.9108L74.9255 27.154L74.525 27.8659L75.7803 28.9538L76.0165 28.6087L78.0773 32.3666C78.9339 33.4657 80.1866 34.1526 81.8352 34.4274H96.6244L99.0489 33.4576L101.595 30.1846L103.446 26.9645L102.095 25.7935L98.6852 31.7605L96.9881 32.7302H81.714C80.4209 32.407 79.5319 31.8413 79.0471 31.0331L70.5614 15.2741L67.1672 9.4554H58.4391L57.7118 10.1827L54.3175 16.0015L53.8326 17.6986L58.4391 24.972H67.0379ZM80.2895 2.39428L80.5017 2.18202L81.714 1.69712H96.9881L98.9276 3.1518L105.716 14.7892L106.443 16.2439V18.1835L104.118 22.2535L105.477 23.4318L107.171 20.4867L108.141 18.0622L107.898 15.3953L100.382 2.30324C99.558 1.10717 98.3054 0.339425 96.6244 0H81.8352L78.9258 1.21223L78.9257 1.21235L80.2895 2.39428ZM65.7125 10.9101L65.4701 11.1525H59.1665L55.5298 17.2137L58.924 23.0324L59.1665 23.2748H66.4398L67.1672 21.5777L69.5917 17.6986V16.9712L67.1672 13.0921L66.4398 11.1525L65.7125 10.9101ZM86.3204 10.9101L85.3507 11.1525L82.1989 16.9712L82.4413 18.1835L85.3507 23.0324L85.5931 23.2748H92.8665L96.2607 17.4561L92.8665 11.1525H88.5025L88.26 10.9101L87.0478 11.1525L86.3204 10.9101Z" fill="white" fill-opacity="0.07"/>
<path fill-rule="evenodd" clip-rule="evenodd" d="M19.1661 52.9651H34.1978C35.7171 53.3046 36.8889 53.9915 37.7132 55.0259L39.774 58.5414L40.3801 58.1777C40.4606 57.9465 40.5491 57.7186 40.6454 57.4944L41.9224 58.6012L40.865 60.481L45.2291 68.4817L48.3809 62.9054L48.8658 62.4206H57.5938L58.5636 63.8752L61.9579 69.9364L61.473 71.6335L58.0787 77.4522L57.5938 77.9371H48.8658L44.2593 70.6637L36.7435 56.6018C36.5037 56.1224 36.1628 55.7007 35.7442 55.3658C35.3256 55.0309 34.8394 54.7909 34.319 54.6623H19.0449L17.5902 55.3896L16.378 56.8443L14.2507 60.5853L12.9123 59.4252L14.196 57.208L16.7416 53.9349L19.1661 52.9651ZM10.8717 62.9499L8.86213 66.4209L7.6499 69.3303L7.89235 71.9972L15.4082 85.0893C16.2325 86.2853 17.4851 87.0531 19.1661 87.3925H34.1978L36.8647 86.1803L37.7436 84.8958L37.4708 85.2105L36.4317 84.31L35.5312 85.2105L34.319 85.6954H19.2873L17.1053 84.7256L9.34703 71.3911V69.209L12.2345 64.1311L10.8717 62.9499ZM31.0379 77.9371L31.7424 77.1242L34.8039 71.876L38.9255 80.1191L38.525 80.831L39.7803 81.9189L40.0165 81.5738L42.0773 85.3317C42.9339 86.4308 44.1866 87.1177 45.8352 87.3925H60.6244L63.0489 86.4227L65.5946 83.1497L67.4461 79.9297L66.0949 78.7587L62.6852 84.7256L60.9881 85.6954H45.714C44.4209 85.3721 43.5319 84.8064 43.0471 83.9983L34.5614 68.2393L31.1672 62.4206H22.4391L21.7118 63.1479L18.3175 68.9666L17.8326 70.6637L22.4391 77.9371H31.0379ZM44.2895 55.3594L44.5017 55.1472L45.714 54.6623H60.9881L62.9276 56.117L69.7161 67.7544L70.4435 69.209V71.1486L68.1178 75.2186L69.4774 76.397L71.1708 73.4519L72.1406 71.0274L71.8982 68.3605L64.3823 55.2684C63.558 54.0723 62.3054 53.3046 60.6244 52.9651H45.8352L42.9258 54.1774L42.9257 54.1775L44.2895 55.3594ZM29.7125 63.8752L29.4701 64.1177H23.1665L19.5298 70.1788L22.924 75.9975L23.1665 76.24H30.4398L31.1672 74.5429L33.5917 70.6637V69.9364L31.1672 66.0572L30.4398 64.1177L29.7125 63.8752ZM50.3204 63.8752L49.3507 64.1177L46.1989 69.9364L46.4413 71.1486L49.3507 75.9975L49.5931 76.24H56.8665L60.2607 70.4213L56.8665 64.1177H52.5025L52.26 63.8752L51.0478 64.1177L50.3204 63.8752Z" fill="white" fill-opacity="0.07"/>
<path fill-rule="evenodd" clip-rule="evenodd" d="M124.816 0H139.848C141.367 0.339425 142.539 1.02636 143.363 2.06079L145.424 5.57626L146.03 5.21259C146.111 4.98133 146.199 4.75342 146.295 4.52925L147.572 5.63603L146.515 7.51583L150.879 15.5166L154.031 9.9403L154.516 9.4554H163.244L164.214 10.9101L167.608 16.9712L167.123 18.6684L163.729 24.4871L163.244 24.972H154.516L149.909 17.6986L142.393 3.63669C142.154 3.15724 141.813 2.73553 141.394 2.40066C140.976 2.0658 140.489 1.82576 139.969 1.69712H124.695L123.24 2.42446L122.028 3.87914L119.901 7.62012L118.562 6.4601L119.846 4.24281L122.392 0.969785L124.816 0ZM116.522 9.98476L114.512 13.4558L113.3 16.3651L113.542 19.032L121.058 32.1241C121.883 33.3202 123.135 34.0879 124.816 34.4274H139.848L142.515 33.2151L143.394 31.9306L143.121 32.2453L142.082 31.3448L141.181 32.2454L139.969 32.7302H124.937L122.755 31.7605L114.997 18.4259V16.2439L117.885 11.1659L116.522 9.98476ZM136.688 24.972L137.392 24.1591L140.454 18.9108L144.575 27.154L144.175 27.8659L145.43 28.9538L145.667 28.6087L147.727 32.3666C148.584 33.4657 149.837 34.1526 151.485 34.4274H166.274L168.699 33.4576L171.245 30.1846L173.096 26.9645L171.745 25.7935L168.335 31.7605L166.638 32.7302H151.364C150.071 32.407 149.182 31.8413 148.697 31.0331L140.211 15.2741L136.817 9.4554H128.089L127.362 10.1827L123.968 16.0015L123.483 17.6986L128.089 24.972H136.688ZM149.939 2.39428L150.152 2.18202L151.364 1.69712H166.638L168.578 3.1518L175.366 14.7892L176.094 16.2439V18.1835L173.768 22.2535L175.127 23.4318L176.821 20.4867L177.791 18.0622L177.548 15.3953L170.032 2.30324C169.208 1.10717 167.955 0.339425 166.274 0H151.485L148.576 1.21223L148.576 1.21235L149.939 2.39428ZM135.363 10.9101L135.12 11.1525H128.816L125.18 17.2137L128.574 23.0324L128.816 23.2748H136.09L136.817 21.5777L139.242 17.6986V16.9712L136.817 13.0921L136.09 11.1525L135.363 10.9101ZM155.97 10.9101L155.001 11.1525L151.849 16.9712L152.091 18.1835L155.001 23.0324L155.243 23.2748H162.517L165.911 17.4561L162.517 11.1525H158.152L157.91 10.9101L156.698 11.1525L155.97 10.9101Z" fill="white" fill-opacity="0.07"/>
<path fill-rule="evenodd" clip-rule="evenodd" d="M88.8161 52.9651H103.848C105.367 53.3046 106.539 53.9915 107.363 55.0259L109.424 58.5414L110.03 58.1777C110.111 57.9465 110.199 57.7186 110.295 57.4944L111.572 58.6012L110.515 60.481L114.879 68.4817L118.031 62.9054L118.516 62.4206H127.244L128.214 63.8752L131.608 69.9364L131.123 71.6335L127.729 77.4522L127.244 77.9371H118.516L113.909 70.6637L106.393 56.6018C106.154 56.1224 105.813 55.7007 105.394 55.3658C104.976 55.0309 104.489 54.7909 103.969 54.6623H88.6949L87.2402 55.3896L86.028 56.8443L83.9008 60.5853L82.5623 59.4252L83.846 57.208L86.3917 53.9349L88.8161 52.9651ZM80.5217 62.9499L78.5122 66.4209L77.2999 69.3303L77.5424 71.9972L85.0582 85.0893C85.8825 86.2853 87.1352 87.0531 88.8161 87.3925H103.848L106.515 86.1803L107.394 84.8958L107.121 85.2105L106.082 84.31L105.181 85.2105L103.969 85.6954H88.9373L86.7553 84.7256L78.9971 71.3911V69.209L81.8845 64.1311L80.5217 62.9499ZM100.688 77.9371L101.392 77.1242L104.454 71.876L108.575 80.1191L108.175 80.831L109.43 81.9189L109.667 81.5738L111.727 85.3317C112.584 86.4308 113.837 87.1177 115.485 87.3925H130.274L132.699 86.4227L135.245 83.1497L137.096 79.9297L135.745 78.7587L132.335 84.7256L130.638 85.6954H115.364C114.071 85.3721 113.182 84.8064 112.697 83.9983L104.211 68.2393L100.817 62.4206H92.0891L91.3618 63.1479L87.9676 68.9666L87.4827 70.6637L92.0891 77.9371H100.688ZM113.939 55.3594L114.152 55.1472L115.364 54.6623H130.638L132.578 56.117L139.366 67.7544L140.094 69.209V71.1486L137.768 75.2186L139.127 76.397L140.821 73.4519L141.791 71.0274L141.548 68.3605L134.032 55.2684C133.208 54.0723 131.955 53.3046 130.274 52.9651H115.485L112.576 54.1774L112.576 54.1775L113.939 55.3594ZM99.3625 63.8752L99.1201 64.1177H92.8165L89.1798 70.1788L92.574 75.9975L92.8165 76.24H100.09L100.817 74.5429L103.242 70.6637V69.9364L100.817 66.0572L100.09 64.1177L99.3625 63.8752ZM119.97 63.8752L119.001 64.1177L115.849 69.9364L116.091 71.1486L119.001 75.9975L119.243 76.24H126.517L129.911 70.4213L126.517 64.1177H122.152L121.91 63.8752L120.698 64.1177L119.97 63.8752Z" fill="white" fill-opacity="0.07"/>
<path fill-rule="evenodd" clip-rule="evenodd" d="M194.466 0H209.498C211.017 0.339425 212.189 1.02636 213.013 2.06079L215.074 5.57626L215.68 5.21259C215.76 4.98133 215.849 4.75342 215.945 4.52925L217.222 5.63603L216.165 7.51583L220.529 15.5166L223.681 9.9403L224.166 9.4554H232.894L233.864 10.9101L237.258 16.9712L236.773 18.6684L233.379 24.4871L232.894 24.972H224.166L219.559 17.6986L212.043 3.63669C211.804 3.15724 211.463 2.73553 211.044 2.40066C210.626 2.0658 210.139 1.82576 209.619 1.69712H194.345L192.89 2.42446L191.678 3.87914L189.551 7.62012L188.212 6.4601L189.496 4.24281L192.042 0.969785L194.466 0ZM186.172 9.98476L184.162 13.4558L182.95 16.3651L183.192 19.032L190.708 32.1241C191.532 33.3202 192.785 34.0879 194.466 34.4274H209.498L212.165 33.2151L213.043 31.9306L212.771 32.2453L211.732 31.3448L210.831 32.2454L209.619 32.7302H194.587L192.405 31.7605L184.647 18.4259V16.2439L187.534 11.1659L186.172 9.98476ZM206.338 24.972L207.042 24.1591L210.104 18.9108L214.225 27.154L213.825 27.8659L215.08 28.9538L215.316 28.6087L217.377 32.3666C218.234 33.4657 219.486 34.1526 221.135 34.4274H235.924L238.349 33.4576L240.894 30.1846L242.746 26.9645L241.395 25.7935L237.985 31.7605L236.288 32.7302H221.014C219.721 32.407 218.832 31.8413 218.347 31.0331L209.861 15.2741L206.467 9.4554H197.739L197.012 10.1827L193.617 16.0015L193.133 17.6986L197.739 24.972H206.338ZM219.589 2.39428L219.802 2.18202L221.014 1.69712H236.288L238.228 3.1518L245.016 14.7892L245.743 16.2439V18.1835L243.418 22.2535L244.777 23.4318L246.471 20.4867L247.441 18.0622L247.198 15.3953L239.682 2.30324C238.858 1.10717 237.605 0.339425 235.924 0H221.135L218.226 1.21223L218.226 1.21235L219.589 2.39428ZM205.012 10.9101L204.77 11.1525H198.466L194.83 17.2137L198.224 23.0324L198.466 23.2748H205.74L206.467 21.5777L208.892 17.6986V16.9712L206.467 13.0921L205.74 11.1525L205.012 10.9101ZM225.62 10.9101L224.651 11.1525L221.499 16.9712L221.741 18.1835L224.651 23.0324L224.893 23.2748H232.166L235.561 17.4561L232.166 11.1525H227.802L227.56 10.9101L226.348 11.1525L225.62 10.9101Z" fill="white" fill-opacity="0.07"/>
<path fill-rule="evenodd" clip-rule="evenodd" d="M158.466 52.9651H173.498C175.017 53.3046 176.189 53.9915 177.013 55.0259L179.074 58.5414L179.68 58.1777C179.76 57.9465 179.849 57.7186 179.945 57.4944L181.222 58.6012L180.165 60.481L184.529 68.4817L187.681 62.9054L188.166 62.4206H196.894L197.864 63.8752L201.258 69.9364L200.773 71.6335L197.379 77.4522L196.894 77.9371H188.166L183.559 70.6637L176.043 56.6018C175.804 56.1224 175.463 55.7007 175.044 55.3658C174.626 55.0309 174.139 54.7909 173.619 54.6623H158.345L156.89 55.3896L155.678 56.8443L153.551 60.5853L152.212 59.4252L153.496 57.208L156.042 53.9349L158.466 52.9651ZM150.172 62.9499L148.162 66.4209L146.95 69.3303L147.192 71.9972L154.708 85.0893C155.532 86.2853 156.785 87.0531 158.466 87.3925H173.498L176.165 86.1803L177.043 84.8958L176.771 85.2105L175.732 84.31L174.831 85.2105L173.619 85.6954H158.587L156.405 84.7256L148.647 71.3911V69.209L151.534 64.1311L150.172 62.9499ZM170.338 77.9371L171.042 77.1242L174.104 71.876L178.225 80.1191L177.825 80.831L179.08 81.9189L179.316 81.5738L181.377 85.3317C182.234 86.4308 183.486 87.1177 185.135 87.3925H199.924L202.349 86.4227L204.894 83.1497L206.746 79.9297L205.395 78.7587L201.985 84.7256L200.288 85.6954H185.014C183.721 85.3721 182.832 84.8064 182.347 83.9983L173.861 68.2393L170.467 62.4206H161.739L161.012 63.1479L157.617 68.9666L157.133 70.6637L161.739 77.9371H170.338ZM183.589 55.3594L183.802 55.1472L185.014 54.6623H200.288L202.228 56.117L209.016 67.7544L209.743 69.209V71.1486L207.418 75.2186L208.777 76.397L210.471 73.4519L211.441 71.0274L211.198 68.3605L203.682 55.2684C202.858 54.0723 201.605 53.3046 199.924 52.9651H185.135L182.226 54.1774L182.226 54.1775L183.589 55.3594ZM169.012 63.8752L168.77 64.1177H162.466L158.83 70.1788L162.224 75.9975L162.466 76.24H169.74L170.467 74.5429L172.892 70.6637V69.9364L170.467 66.0572L169.74 64.1177L169.012 63.8752ZM189.62 63.8752L188.651 64.1177L185.499 69.9364L185.741 71.1486L188.651 75.9975L188.893 76.24H196.166L199.561 70.4213L196.166 64.1177H191.802L191.56 63.8752L190.348 64.1177L189.62 63.8752Z" fill="white" fill-opacity="0.07"/>
<path fill-rule="evenodd" clip-rule="evenodd" d="M264.116 0H279.148C280.667 0.339425 281.839 1.02636 282.663 2.06079L284.724 5.57626L285.33 5.21259C285.411 4.98133 285.499 4.75342 285.595 4.52925L286.872 5.63603L285.815 7.51583L290.179 15.5166L293.331 9.9403L293.816 9.4554H302.544L303.514 10.9101L306.908 16.9712L306.423 18.6684L303.029 24.4871L302.544 24.972H293.816L289.209 17.6986L281.693 3.63669C281.454 3.15724 281.113 2.73553 280.694 2.40066C280.276 2.0658 279.789 1.82576 279.269 1.69712H263.995L262.54 2.42446L261.328 3.87914L259.201 7.62012L257.862 6.4601L259.146 4.24281L261.692 0.969785L264.116 0ZM255.822 9.98476L253.812 13.4558L252.6 16.3651L252.842 19.032L260.358 32.1241C261.182 33.3202 262.435 34.0879 264.116 34.4274H279.148L281.815 33.2151L282.694 31.9306L282.421 32.2453L281.382 31.3448L280.481 32.2454L279.269 32.7302H264.237L262.055 31.7605L254.297 18.4259V16.2439L257.184 11.1659L255.822 9.98476ZM275.988 24.972L276.692 24.1591L279.754 18.9108L283.875 27.154L283.475 27.8659L284.73 28.9538L284.966 28.6087L287.027 32.3666C287.884 33.4657 289.137 34.1526 290.785 34.4274H305.574L307.999 33.4576L310.545 30.1846L312.396 26.9645L311.045 25.7935L307.635 31.7605L305.938 32.7302H290.664C289.371 32.407 288.482 31.8413 287.997 31.0331L279.511 15.2741L276.117 9.4554H267.389L266.662 10.1827L263.267 16.0015L262.783 17.6986L267.389 24.972H275.988ZM289.239 2.39428L289.452 2.18202L290.664 1.69712H305.938L307.878 3.1518L314.666 14.7892L315.393 16.2439V18.1835L313.068 22.2535L314.427 23.4318L316.121 20.4867L317.091 18.0622L316.848 15.3953L309.332 2.30324C308.508 1.10717 307.255 0.339425 305.574 0H290.785L287.876 1.21223L287.876 1.21235L289.239 2.39428ZM274.662 10.9101L274.42 11.1525H268.116L264.48 17.2137L267.874 23.0324L268.116 23.2748H275.39L276.117 21.5777L278.542 17.6986V16.9712L276.117 13.0921L275.39 11.1525L274.662 10.9101ZM295.27 10.9101L294.301 11.1525L291.149 16.9712L291.391 18.1835L294.301 23.0324L294.543 23.2748H301.816L305.211 17.4561L301.816 11.1525H297.452L297.21 10.9101L295.998 11.1525L295.27 10.9101Z" fill="white" fill-opacity="0.07"/>
<path fill-rule="evenodd" clip-rule="evenodd" d="M228.116 52.9651H243.148C244.667 53.3046 245.839 53.9915 246.663 55.0259L248.724 58.5414L249.33 58.1777C249.411 57.9465 249.499 57.7186 249.595 57.4944L250.872 58.6012L249.815 60.481L254.179 68.4817L257.331 62.9054L257.816 62.4206H266.544L267.514 63.8752L270.908 69.9364L270.423 71.6335L267.029 77.4522L266.544 77.9371H257.816L253.209 70.6637L245.693 56.6018C245.454 56.1224 245.113 55.7007 244.694 55.3658C244.276 55.0309 243.789 54.7909 243.269 54.6623H227.995L226.54 55.3896L225.328 56.8443L223.201 60.5853L221.862 59.4252L223.146 57.208L225.692 53.9349L228.116 52.9651ZM219.822 62.9499L217.812 66.4209L216.6 69.3303L216.842 71.9972L224.358 85.0893C225.182 86.2853 226.435 87.0531 228.116 87.3925H243.148L245.815 86.1803L246.694 84.8958L246.421 85.2105L245.382 84.31L244.481 85.2105L243.269 85.6954H228.237L226.055 84.7256L218.297 71.3911V69.209L221.184 64.1311L219.822 62.9499ZM239.988 77.9371L240.692 77.1242L243.754 71.876L247.875 80.1191L247.475 80.831L248.73 81.9189L248.966 81.5738L251.027 85.3317C251.884 86.4308 253.137 87.1177 254.785 87.3925H269.574L271.999 86.4227L274.545 83.1497L276.396 79.9297L275.045 78.7587L271.635 84.7256L269.938 85.6954H254.664C253.371 85.3721 252.482 84.8064 251.997 83.9983L243.511 68.2393L240.117 62.4206H231.389L230.662 63.1479L227.267 68.9666L226.783 70.6637L231.389 77.9371H239.988ZM253.239 55.3594L253.452 55.1472L254.664 54.6623H269.938L271.878 56.117L278.666 67.7544L279.393 69.209V71.1486L277.068 75.2186L278.427 76.397L280.121 73.4519L281.091 71.0274L280.848 68.3605L273.332 55.2684C272.508 54.0723 271.255 53.3046 269.574 52.9651H254.785L251.876 54.1774L251.876 54.1775L253.239 55.3594ZM238.662 63.8752L238.42 64.1177H232.116L228.48 70.1788L231.874 75.9975L232.116 76.24H239.39L240.117 74.5429L242.542 70.6637V69.9364L240.117 66.0572L239.39 64.1177L238.662 63.8752ZM259.27 63.8752L258.301 64.1177L255.149 69.9364L255.391 71.1486L258.301 75.9975L258.543 76.24H265.816L269.211 70.4213L265.816 64.1177H261.452L261.21 63.8752L259.998 64.1177L259.27 63.8752Z" fill="white" fill-opacity="0.07"/>
<path fill-rule="evenodd" clip-rule="evenodd" d="M333.766 0H348.798C350.317 0.339425 351.489 1.02636 352.313 2.06079L354.374 5.57626L354.98 5.21259C355.06 4.98133 355.149 4.75342 355.245 4.52925L356.522 5.63603L355.465 7.51583L359.829 15.5166L362.981 9.9403L363.466 9.4554H372.194L373.163 10.9101L376.558 16.9712L376.073 18.6684L372.679 24.4871L372.194 24.972H363.466L358.859 17.6986L351.343 3.63669C351.104 3.15724 350.763 2.73553 350.344 2.40066C349.925 2.0658 349.439 1.82576 348.919 1.69712H333.645L332.19 2.42446L330.978 3.87914L328.851 7.62012L327.512 6.4601L328.796 4.24281L331.341 0.969785L333.766 0ZM325.472 9.98476L323.462 13.4558L322.25 16.3651L322.492 19.032L330.008 32.1241C330.832 33.3202 332.085 34.0879 333.766 34.4274H348.798L351.465 33.2151L352.343 31.9306L352.071 32.2453L351.032 31.3448L350.131 32.2454L348.919 32.7302H333.887L331.705 31.7605L323.947 18.4259V16.2439L326.834 11.1659L325.472 9.98476ZM345.638 24.972L346.342 24.1591L349.404 18.9108L353.525 27.154L353.125 27.8659L354.38 28.9538L354.616 28.6087L356.677 32.3666C357.534 33.4657 358.786 34.1526 360.435 34.4274H375.224L377.649 33.4576L380.194 30.1846L382.046 26.9645L380.695 25.7935L377.285 31.7605L375.588 32.7302H360.314C359.021 32.407 358.132 31.8413 357.647 31.0331L349.161 15.2741L345.767 9.4554H337.039L336.312 10.1827L332.917 16.0015L332.432 17.6986L337.039 24.972H345.638ZM358.889 2.39428L359.102 2.18202L360.314 1.69712H375.588L377.528 3.1518L384.316 14.7892L385.043 16.2439V18.1835L382.718 22.2535L384.077 23.4318L385.771 20.4867L386.74 18.0622L386.498 15.3953L378.982 2.30324C378.158 1.10717 376.905 0.339425 375.224 0H360.435L357.526 1.21223L357.526 1.21235L358.889 2.39428ZM344.312 10.9101L344.07 11.1525H337.766L334.13 17.2137L337.524 23.0324L337.766 23.2748H345.04L345.767 21.5777L348.192 17.6986V16.9712L345.767 13.0921L345.04 11.1525L344.312 10.9101ZM364.92 10.9101L363.951 11.1525L360.799 16.9712L361.041 18.1835L363.951 23.0324L364.193 23.2748H371.466L374.861 17.4561L371.466 11.1525H367.102L366.86 10.9101L365.648 11.1525L364.92 10.9101Z" fill="white" fill-opacity="0.07"/>
<path fill-rule="evenodd" clip-rule="evenodd" d="M297.766 52.9651H312.798C314.317 53.3046 315.489 53.9915 316.313 55.0259L318.374 58.5414L318.98 58.1777C319.06 57.9465 319.149 57.7186 319.245 57.4944L320.522 58.6012L319.465 60.481L323.829 68.4817L326.981 62.9054L327.466 62.4206H336.194L337.163 63.8752L340.558 69.9364L340.073 71.6335L336.679 77.4522L336.194 77.9371H327.466L322.859 70.6637L315.343 56.6018C315.104 56.1224 314.763 55.7007 314.344 55.3658C313.925 55.0309 313.439 54.7909 312.919 54.6623H297.645L296.19 55.3896L294.978 56.8443L292.851 60.5853L291.512 59.4252L292.796 57.208L295.341 53.9349L297.766 52.9651ZM289.472 62.9499L287.462 66.4209L286.25 69.3303L286.492 71.9972L294.008 85.0893C294.832 86.2853 296.085 87.0531 297.766 87.3925H312.798L315.465 86.1803L316.343 84.8958L316.071 85.2105L315.032 84.31L314.131 85.2105L312.919 85.6954H297.887L295.705 84.7256L287.947 71.3911V69.209L290.834 64.1311L289.472 62.9499ZM309.638 77.9371L310.342 77.1242L313.404 71.876L317.525 80.1191L317.125 80.831L318.38 81.9189L318.616 81.5738L320.677 85.3317C321.534 86.4308 322.786 87.1177 324.435 87.3925H339.224L341.649 86.4227L344.194 83.1497L346.046 79.9297L344.695 78.7587L341.285 84.7256L339.588 85.6954H324.314C323.021 85.3721 322.132 84.8064 321.647 83.9983L313.161 68.2393L309.767 62.4206H301.039L300.312 63.1479L296.917 68.9666L296.432 70.6637L301.039 77.9371H309.638ZM322.889 55.3594L323.102 55.1472L324.314 54.6623H339.588L341.528 56.117L348.316 67.7544L349.043 69.209V71.1486L346.718 75.2186L348.077 76.397L349.771 73.4519L350.74 71.0274L350.498 68.3605L342.982 55.2684C342.158 54.0723 340.905 53.3046 339.224 52.9651H324.435L321.526 54.1774L321.526 54.1775L322.889 55.3594ZM308.312 63.8752L308.07 64.1177H301.766L298.13 70.1788L301.524 75.9975L301.766 76.24H309.04L309.767 74.5429L312.192 70.6637V69.9364L309.767 66.0572L309.04 64.1177L308.312 63.8752ZM328.92 63.8752L327.951 64.1177L324.799 69.9364L325.041 71.1486L327.951 75.9975L328.193 76.24H335.466L338.861 70.4213L335.466 64.1177H331.102L330.86 63.8752L329.648 64.1177L328.92 63.8752Z" fill="white" fill-opacity="0.07"/>
<path fill-rule="evenodd" clip-rule="evenodd" d="M403.416 0H418.448C419.967 0.339425 421.139 1.02636 421.963 2.06079L424.024 5.57626L424.63 5.21259C424.71 4.98133 424.799 4.75342 424.895 4.52925L426.172 5.63603L425.115 7.51583L429.479 15.5166L432.631 9.9403L433.116 9.4554H441.844L442.813 10.9101L446.208 16.9712L445.723 18.6684L442.329 24.4871L441.844 24.972H433.116L428.509 17.6986L420.993 3.63669C420.754 3.15724 420.413 2.73553 419.994 2.40066C419.575 2.0658 419.089 1.82576 418.569 1.69712H403.295L401.84 2.42446L400.628 3.87914L398.501 7.62012L397.162 6.4601L398.446 4.24281L400.991 0.969785L403.416 0ZM395.121 9.98476L393.112 13.4558L391.9 16.3651L392.142 19.032L399.658 32.1241C400.482 33.3202 401.735 34.0879 403.416 34.4274H418.448L421.114 33.2151L421.993 31.9306L421.721 32.2453L420.682 31.3448L419.781 32.2454L418.569 32.7302H403.537L401.355 31.7605L393.597 18.4259V16.2439L396.484 11.1659L395.121 9.98476ZM415.288 24.972L415.992 24.1591L419.054 18.9108L423.175 27.154L422.775 27.8659L424.03 28.9538L424.266 28.6087L426.327 32.3666C427.184 33.4657 428.436 34.1526 430.085 34.4274H444.874L447.299 33.4576L449.844 30.1846L451.696 26.9645L450.345 25.7935L446.935 31.7605L445.238 32.7302H429.964C428.671 32.407 427.782 31.8413 427.297 31.0331L418.811 15.2741L415.417 9.4554H406.689L405.962 10.1827L402.567 16.0015L402.082 17.6986L406.689 24.972H415.288ZM428.539 2.39428L428.752 2.18202L429.964 1.69712H445.238L447.177 3.1518L453.966 14.7892L454.693 16.2439V18.1835L452.368 22.2535L453.727 23.4318L455.421 20.4867L456.39 18.0622L456.148 15.3953L448.632 2.30324C447.808 1.10717 446.555 0.339425 444.874 0H430.085L427.176 1.21223L427.176 1.21235L428.539 2.39428ZM413.962 10.9101L413.72 11.1525H407.416L403.78 17.2137L407.174 23.0324L407.416 23.2748H414.69L415.417 21.5777L417.841 17.6986V16.9712L415.417 13.0921L414.69 11.1525L413.962 10.9101ZM434.57 10.9101L433.6 11.1525L430.449 16.9712L430.691 18.1835L433.6 23.0324L433.843 23.2748H441.116L444.511 17.4561L441.116 11.1525H436.752L436.51 10.9101L435.298 11.1525L434.57 10.9101Z" fill="white" fill-opacity="0.07"/>
<path fill-rule="evenodd" clip-rule="evenodd" d="M367.416 52.9651H382.448C383.967 53.3046 385.139 53.9915 385.963 55.0259L388.024 58.5414L388.63 58.1777C388.71 57.9465 388.799 57.7186 388.895 57.4944L390.172 58.6012L389.115 60.481L393.479 68.4817L396.631 62.9054L397.116 62.4206H405.844L406.813 63.8752L410.208 69.9364L409.723 71.6335L406.329 77.4522L405.844 77.9371H397.116L392.509 70.6637L384.993 56.6018C384.754 56.1224 384.413 55.7007 383.994 55.3658C383.575 55.0309 383.089 54.7909 382.569 54.6623H367.295L365.84 55.3896L364.628 56.8443L362.501 60.5853L361.162 59.4252L362.446 57.208L364.991 53.9349L367.416 52.9651ZM359.121 62.9499L357.112 66.4209L355.9 69.3303L356.142 71.9972L363.658 85.0893C364.482 86.2853 365.735 87.0531 367.416 87.3925H382.448L385.114 86.1803L385.993 84.8958L385.721 85.2105L384.682 84.31L383.781 85.2105L382.569 85.6954H367.537L365.355 84.7256L357.597 71.3911V69.209L360.484 64.1311L359.121 62.9499ZM379.288 77.9371L379.992 77.1242L383.054 71.876L387.175 80.1191L386.775 80.831L388.03 81.9189L388.266 81.5738L390.327 85.3317C391.184 86.4308 392.436 87.1177 394.085 87.3925H408.874L411.299 86.4227L413.844 83.1497L415.696 79.9297L414.345 78.7587L410.935 84.7256L409.238 85.6954H393.964C392.671 85.3721 391.782 84.8064 391.297 83.9983L382.811 68.2393L379.417 62.4206H370.689L369.962 63.1479L366.567 68.9666L366.082 70.6637L370.689 77.9371H379.288ZM392.539 55.3594L392.752 55.1472L393.964 54.6623H409.238L411.177 56.117L417.966 67.7544L418.693 69.209V71.1486L416.368 75.2186L417.727 76.397L419.421 73.4519L420.39 71.0274L420.148 68.3605L412.632 55.2684C411.808 54.0723 410.555 53.3046 408.874 52.9651H394.085L391.176 54.1774L391.176 54.1775L392.539 55.3594ZM377.962 63.8752L377.72 64.1177H371.416L367.78 70.1788L371.174 75.9975L371.416 76.24H378.69L379.417 74.5429L381.841 70.6637V69.9364L379.417 66.0572L378.69 64.1177L377.962 63.8752ZM398.57 63.8752L397.6 64.1177L394.449 69.9364L394.691 71.1486L397.6 75.9975L397.843 76.24H405.116L408.511 70.4213L405.116 64.1177H400.752L400.51 63.8752L399.298 64.1177L398.57 63.8752Z" fill="white" fill-opacity="0.07"/>
<path fill-rule="evenodd" clip-rule="evenodd" d="M473.066 0H488.098C489.617 0.339425 490.789 1.02636 491.613 2.06079L493.674 5.57626L494.28 5.21259C494.36 4.98133 494.449 4.75342 494.545 4.52925L495.822 5.63603L494.765 7.51583L499.129 15.5166L502.281 9.9403L502.766 9.4554H511.494L512.463 10.9101L515.858 16.9712L515.373 18.6684L511.979 24.4871L511.494 24.972H502.766L498.159 17.6986L490.643 3.63669C490.404 3.15724 490.063 2.73553 489.644 2.40066C489.225 2.0658 488.739 1.82576 488.219 1.69712H472.945L471.49 2.42446L470.278 3.87914L468.151 7.62012L466.812 6.4601L468.096 4.24281L470.641 0.969785L473.066 0ZM464.771 9.98476L462.762 13.4558L461.55 16.3651L461.792 19.032L469.308 32.1241C470.132 33.3202 471.385 34.0879 473.066 34.4274H488.098L490.764 33.2151L491.643 31.9306L491.371 32.2453L490.332 31.3448L489.431 32.2454L488.219 32.7302H473.187L471.005 31.7605L463.247 18.4259V16.2439L466.134 11.1659L464.771 9.98476ZM484.938 24.972L485.642 24.1591L488.704 18.9108L492.825 27.154L492.425 27.8659L493.68 28.9538L493.916 28.6087L495.977 32.3666C496.834 33.4657 498.086 34.1526 499.735 34.4274H514.524L516.949 33.4576L519.494 30.1846L521.346 26.9645L519.995 25.7935L516.585 31.7605L514.888 32.7302H499.614C498.321 32.407 497.432 31.8413 496.947 31.0331L488.461 15.2741L485.067 9.4554H476.339L475.612 10.1827L472.217 16.0015L471.732 17.6986L476.339 24.972H484.938ZM498.189 2.39428L498.402 2.18202L499.614 1.69712H514.888L516.827 3.1518L523.616 14.7892L524.343 16.2439V18.1835L522.018 22.2535L523.377 23.4318L525.071 20.4867L526.04 18.0622L525.798 15.3953L518.282 2.30324C517.458 1.10717 516.205 0.339425 514.524 0H499.735L496.826 1.21223L496.825 1.21235L498.189 2.39428ZM483.612 10.9101L483.37 11.1525H477.066L473.43 17.2137L476.824 23.0324L477.066 23.2748H484.34L485.067 21.5777L487.491 17.6986V16.9712L485.067 13.0921L484.34 11.1525L483.612 10.9101ZM504.22 10.9101L503.25 11.1525L500.099 16.9712L500.341 18.1835L503.25 23.0324L503.493 23.2748H510.766L514.161 17.4561L510.766 11.1525H506.402L506.16 10.9101L504.948 11.1525L504.22 10.9101Z" fill="white" fill-opacity="0.07"/>
<path fill-rule="evenodd" clip-rule="evenodd" d="M437.066 52.9651H452.098C453.617 53.3046 454.789 53.9915 455.613 55.0259L457.674 58.5414L458.28 58.1777C458.36 57.9465 458.449 57.7186 458.545 57.4944L459.822 58.6012L458.765 60.481L463.129 68.4817L466.281 62.9054L466.766 62.4206H475.494L476.463 63.8752L479.858 69.9364L479.373 71.6335L475.979 77.4522L475.494 77.9371H466.766L462.159 70.6637L454.643 56.6018C454.404 56.1224 454.063 55.7007 453.644 55.3658C453.225 55.0309 452.739 54.7909 452.219 54.6623H436.945L435.49 55.3896L434.278 56.8443L432.151 60.5853L430.812 59.4252L432.096 57.208L434.641 53.9349L437.066 52.9651ZM428.771 62.9499L426.762 66.4209L425.55 69.3303L425.792 71.9972L433.308 85.0893C434.132 86.2853 435.385 87.0531 437.066 87.3925H452.098L454.764 86.1803L455.643 84.8958L455.371 85.2105L454.332 84.31L453.431 85.2105L452.219 85.6954H437.187L435.005 84.7256L427.247 71.3911V69.209L430.134 64.1311L428.771 62.9499ZM448.938 77.9371L449.642 77.1242L452.704 71.876L456.825 80.1191L456.425 80.831L457.68 81.9189L457.916 81.5738L459.977 85.3317C460.834 86.4308 462.086 87.1177 463.735 87.3925H478.524L480.949 86.4227L483.494 83.1497L485.346 79.9297L483.995 78.7587L480.585 84.7256L478.888 85.6954H463.614C462.321 85.3721 461.432 84.8064 460.947 83.9983L452.461 68.2393L449.067 62.4206H440.339L439.612 63.1479L436.217 68.9666L435.732 70.6637L440.339 77.9371H448.938ZM462.189 55.3594L462.402 55.1472L463.614 54.6623H478.888L480.827 56.117L487.616 67.7544L488.343 69.209V71.1486L486.018 75.2186L487.377 76.397L489.071 73.4519L490.04 71.0274L489.798 68.3605L482.282 55.2684C481.458 54.0723 480.205 53.3046 478.524 52.9651H463.735L460.826 54.1774L460.826 54.1775L462.189 55.3594ZM447.612 63.8752L447.37 64.1177H441.066L437.43 70.1788L440.824 75.9975L441.066 76.24H448.34L449.067 74.5429L451.491 70.6637V69.9364L449.067 66.0572L448.34 64.1177L447.612 63.8752ZM468.22 63.8752L467.25 64.1177L464.099 69.9364L464.341 71.1486L467.25 75.9975L467.493 76.24H474.766L478.161 70.4213L474.766 64.1177H470.402L470.16 63.8752L468.948 64.1177L468.22 63.8752Z" fill="white" fill-opacity="0.07"/>
<path fill-rule="evenodd" clip-rule="evenodd" d="M542.716 0H557.748C559.267 0.339425 560.439 1.02636 561.263 2.06079L563.324 5.57626L563.93 5.21259C564.01 4.98133 564.099 4.75342 564.195 4.52925L565.472 5.63603L564.415 7.51583L568.779 15.5166L571.931 9.9403L572.416 9.4554H581.144L582.113 10.9101L585.508 16.9712L585.023 18.6684L581.628 24.4871L581.144 24.972H572.416L567.809 17.6986L560.293 3.63669C560.053 3.15724 559.713 2.73553 559.294 2.40066C558.875 2.0658 558.389 1.82576 557.869 1.69712H542.595L541.14 2.42446L539.928 3.87914L537.8 7.62012L536.462 6.4601L537.746 4.24281L540.291 0.969785L542.716 0ZM534.421 9.98476L532.412 13.4558L531.2 16.3651L531.442 19.032L538.958 32.1241C539.782 33.3202 541.035 34.0879 542.716 34.4274H557.748L560.414 33.2151L561.293 31.9306L561.021 32.2453L559.981 31.3448L559.081 32.2454L557.869 32.7302H542.837L540.655 31.7605L532.897 18.4259V16.2439L535.784 11.1659L534.421 9.98476ZM554.588 24.972L555.292 24.1591L558.354 18.9108L562.475 27.154L562.075 27.8659L563.33 28.9538L563.566 28.6087L565.627 32.3666C566.484 33.4657 567.736 34.1526 569.385 34.4274H584.174L586.599 33.4576L589.144 30.1846L590.996 26.9645L589.645 25.7935L586.235 31.7605L584.538 32.7302H569.264C567.971 32.407 567.082 31.8413 566.597 31.0331L558.111 15.2741L554.717 9.4554H545.989L545.262 10.1827L541.867 16.0015L541.382 17.6986L545.989 24.972H554.588ZM567.839 2.39428L568.051 2.18202L569.264 1.69712H584.538L586.477 3.1518L593.266 14.7892L593.993 16.2439V18.1835L591.668 22.2535L593.027 23.4318L594.721 20.4867L595.69 18.0622L595.448 15.3953L587.932 2.30324C587.108 1.10717 585.855 0.339425 584.174 0H569.385L566.476 1.21223L566.475 1.21235L567.839 2.39428ZM553.262 10.9101L553.02 11.1525H546.716L543.08 17.2137L546.474 23.0324L546.716 23.2748H553.99L554.717 21.5777L557.141 17.6986V16.9712L554.717 13.0921L553.99 11.1525L553.262 10.9101ZM573.87 10.9101L572.9 11.1525L569.749 16.9712L569.991 18.1835L572.9 23.0324L573.143 23.2748H580.416L583.81 17.4561L580.416 11.1525H576.052L575.81 10.9101L574.598 11.1525L573.87 10.9101Z" fill="white" fill-opacity="0.07"/>
<path fill-rule="evenodd" clip-rule="evenodd" d="M506.716 52.9651H521.748C523.267 53.3046 524.439 53.9915 525.263 55.0259L527.324 58.5414L527.93 58.1777C528.01 57.9465 528.099 57.7186 528.195 57.4944L529.472 58.6012L528.415 60.481L532.779 68.4817L535.931 62.9054L536.416 62.4206H545.144L546.113 63.8752L549.508 69.9364L549.023 71.6335L545.628 77.4522L545.144 77.9371H536.416L531.809 70.6637L524.293 56.6018C524.053 56.1224 523.713 55.7007 523.294 55.3658C522.875 55.0309 522.389 54.7909 521.869 54.6623H506.595L505.14 55.3896L503.928 56.8443L501.8 60.5853L500.462 59.4252L501.746 57.208L504.291 53.9349L506.716 52.9651ZM498.421 62.9499L496.412 66.4209L495.2 69.3303L495.442 71.9972L502.958 85.0893C503.782 86.2853 505.035 87.0531 506.716 87.3925H521.748L524.414 86.1803L525.293 84.8958L525.021 85.2105L523.981 84.31L523.081 85.2105L521.869 85.6954H506.837L504.655 84.7256L496.897 71.3911V69.209L499.784 64.1311L498.421 62.9499ZM518.588 77.9371L519.292 77.1242L522.354 71.876L526.475 80.1191L526.075 80.831L527.33 81.9189L527.566 81.5738L529.627 85.3317C530.484 86.4308 531.736 87.1177 533.385 87.3925H548.174L550.599 86.4227L553.144 83.1497L554.996 79.9297L553.645 78.7587L550.235 84.7256L548.538 85.6954H533.264C531.971 85.3721 531.082 84.8064 530.597 83.9983L522.111 68.2393L518.717 62.4206H509.989L509.262 63.1479L505.867 68.9666L505.382 70.6637L509.989 77.9371H518.588ZM531.839 55.3594L532.051 55.1472L533.264 54.6623H548.538L550.477 56.117L557.266 67.7544L557.993 69.209V71.1486L555.668 75.2186L557.027 76.397L558.721 73.4519L559.69 71.0274L559.448 68.3605L551.932 55.2684C551.108 54.0723 549.855 53.3046 548.174 52.9651H533.385L530.476 54.1774L530.475 54.1775L531.839 55.3594ZM517.262 63.8752L517.02 64.1177H510.716L507.08 70.1788L510.474 75.9975L510.716 76.24H517.99L518.717 74.5429L521.141 70.6637V69.9364L518.717 66.0572L517.99 64.1177L517.262 63.8752ZM537.87 63.8752L536.9 64.1177L533.749 69.9364L533.991 71.1486L536.9 75.9975L537.143 76.24H544.416L547.81 70.4213L544.416 64.1177H540.052L539.81 63.8752L538.598 64.1177L537.87 63.8752Z" fill="white" fill-opacity="0.07"/>
<path fill-rule="evenodd" clip-rule="evenodd" d="M612.366 0H627.397C628.917 0.339425 630.089 1.02636 630.913 2.06079L632.974 5.57626L633.58 5.21259C633.66 4.98133 633.749 4.75342 633.845 4.52925L635.122 5.63603L634.065 7.51583L638.429 15.5166L641.581 9.9403L642.065 9.4554H650.794L651.763 10.9101L655.158 16.9712L654.673 18.6684L651.278 24.4871L650.794 24.972H642.065L637.459 17.6986L629.943 3.63669C629.703 3.15724 629.363 2.73553 628.944 2.40066C628.525 2.0658 628.039 1.82576 627.519 1.69712H612.245L610.79 2.42446L609.578 3.87914L607.45 7.62012L606.112 6.4601L607.396 4.24281L609.941 0.969785L612.366 0ZM604.071 9.98476L602.062 13.4558L600.85 16.3651L601.092 19.032L608.608 32.1241C609.432 33.3202 610.685 34.0879 612.366 34.4274H627.397L630.064 33.2151L630.943 31.9306L630.67 32.2453L629.631 31.3448L628.731 32.2454L627.519 32.7302H612.487L610.305 31.7605L602.547 18.4259V16.2439L605.434 11.1659L604.071 9.98476ZM624.238 24.972L624.942 24.1591L628.004 18.9108L632.125 27.154L631.725 27.8659L632.98 28.9538L633.216 28.6087L635.277 32.3666C636.134 33.4657 637.386 34.1526 639.035 34.4274H653.824L656.249 33.4576L658.794 30.1846L660.646 26.9645L659.295 25.7935L655.885 31.7605L654.188 32.7302H638.914C637.621 32.407 636.732 31.8413 636.247 31.0331L627.761 15.2741L624.367 9.4554H615.639L614.911 10.1827L611.517 16.0015L611.032 17.6986L615.639 24.972H624.238ZM637.489 2.39428L637.701 2.18202L638.914 1.69712H654.188L656.127 3.1518L662.916 14.7892L663.643 16.2439V18.1835L661.317 22.2535L662.677 23.4318L664.371 20.4867L665.34 18.0622L665.098 15.3953L657.582 2.30324C656.758 1.10717 655.505 0.339425 653.824 0H639.035L636.126 1.21223L636.125 1.21235L637.489 2.39428ZM622.912 10.9101L622.67 11.1525H616.366L612.729 17.2137L616.124 23.0324L616.366 23.2748H623.64L624.367 21.5777L626.791 17.6986V16.9712L624.367 13.0921L623.64 11.1525L622.912 10.9101ZM643.52 10.9101L642.55 11.1525L639.399 16.9712L639.641 18.1835L642.55 23.0324L642.793 23.2748H650.066L653.46 17.4561L650.066 11.1525H645.702L645.46 10.9101L644.247 11.1525L643.52 10.9101Z" fill="white" fill-opacity="0.07"/>
<path fill-rule="evenodd" clip-rule="evenodd" d="M576.366 52.9651H591.397C592.917 53.3046 594.089 53.9915 594.913 55.0259L596.974 58.5414L597.58 58.1777C597.66 57.9465 597.749 57.7186 597.845 57.4944L599.122 58.6012L598.065 60.481L602.429 68.4817L605.581 62.9054L606.065 62.4206H614.794L615.763 63.8752L619.158 69.9364L618.673 71.6335L615.278 77.4522L614.794 77.9371H606.065L601.459 70.6637L593.943 56.6018C593.703 56.1224 593.363 55.7007 592.944 55.3658C592.525 55.0309 592.039 54.7909 591.519 54.6623H576.245L574.79 55.3896L573.578 56.8443L571.45 60.5853L570.112 59.4252L571.396 57.208L573.941 53.9349L576.366 52.9651ZM568.071 62.9499L566.062 66.4209L564.85 69.3303L565.092 71.9972L572.608 85.0893C573.432 86.2853 574.685 87.0531 576.366 87.3925H591.397L594.064 86.1803L594.943 84.8958L594.67 85.2105L593.631 84.31L592.731 85.2105L591.519 85.6954H576.487L574.305 84.7256L566.547 71.3911V69.209L569.434 64.1311L568.071 62.9499ZM588.238 77.9371L588.942 77.1242L592.004 71.876L596.125 80.1191L595.725 80.831L596.98 81.9189L597.216 81.5738L599.277 85.3317C600.134 86.4308 601.386 87.1177 603.035 87.3925H617.824L620.249 86.4227L622.794 83.1497L624.646 79.9297L623.295 78.7587L619.885 84.7256L618.188 85.6954H602.914C601.621 85.3721 600.732 84.8064 600.247 83.9983L591.761 68.2393L588.367 62.4206H579.639L578.911 63.1479L575.517 68.9666L575.032 70.6637L579.639 77.9371H588.238ZM601.489 55.3594L601.701 55.1472L602.914 54.6623H618.188L620.127 56.117L626.916 67.7544L627.643 69.209V71.1486L625.317 75.2186L626.677 76.397L628.371 73.4519L629.34 71.0274L629.098 68.3605L621.582 55.2684C620.758 54.0723 619.505 53.3046 617.824 52.9651H603.035L600.126 54.1774L600.125 54.1775L601.489 55.3594ZM586.912 63.8752L586.67 64.1177H580.366L576.729 70.1788L580.124 75.9975L580.366 76.24H587.64L588.367 74.5429L590.791 70.6637V69.9364L588.367 66.0572L587.64 64.1177L586.912 63.8752ZM607.52 63.8752L606.55 64.1177L603.399 69.9364L603.641 71.1486L606.55 75.9975L606.793 76.24H614.066L617.46 70.4213L614.066 64.1177H609.702L609.46 63.8752L608.247 64.1177L607.52 63.8752Z" fill="white" fill-opacity="0.07"/>
<path fill-rule="evenodd" clip-rule="evenodd" d="M682.016 0H697.047C698.567 0.339425 699.739 1.02636 700.563 2.06079L702.624 5.57626L703.23 5.21259C703.31 4.98133 703.399 4.75342 703.495 4.52925L704.772 5.63603L703.715 7.51583L708.079 15.5166L711.23 9.9403L711.715 9.4554H720.443L721.413 10.9101L724.807 16.9712L724.323 18.6684L720.928 24.4871L720.443 24.972H711.715L707.109 17.6986L699.593 3.63669C699.353 3.15724 699.012 2.73553 698.594 2.40066C698.175 2.0658 697.689 1.82576 697.169 1.69712H681.894L680.44 2.42446L679.228 3.87914L677.1 7.62012L675.762 6.4601L677.046 4.24281L679.591 0.969785L682.016 0ZM673.721 9.98476L671.712 13.4558L670.5 16.3651L670.742 19.032L678.258 32.1241C679.082 33.3202 680.335 34.0879 682.016 34.4274H697.047L699.714 33.2151L700.593 31.9306L700.32 32.2453L699.281 31.3448L698.381 32.2454L697.169 32.7302H682.137L679.955 31.7605L672.197 18.4259V16.2439L675.084 11.1659L673.721 9.98476ZM693.887 24.972L694.592 24.1591L697.653 18.9108L701.775 27.154L701.375 27.8659L702.63 28.9538L702.866 28.6087L704.927 32.3666C705.784 33.4657 707.036 34.1526 708.685 34.4274H723.474L725.898 33.4576L728.444 30.1846L730.296 26.9645L728.944 25.7935L725.535 31.7605L723.838 32.7302H708.564C707.271 32.407 706.382 31.8413 705.897 31.0331L697.411 15.2741L694.017 9.4554H685.289L684.561 10.1827L681.167 16.0015L680.682 17.6986L685.289 24.972H693.887ZM707.139 2.39428L707.351 2.18202L708.564 1.69712H723.838L725.777 3.1518L732.566 14.7892L733.293 16.2439V18.1835L730.967 22.2535L732.327 23.4318L734.02 20.4867L734.99 18.0622L734.748 15.3953L727.232 2.30324C726.408 1.10717 725.155 0.339425 723.474 0H708.685L705.775 1.21223L705.775 1.21235L707.139 2.39428ZM692.562 10.9101L692.32 11.1525H686.016L682.379 17.2137L685.774 23.0324L686.016 23.2748H693.289L694.017 21.5777L696.441 17.6986V16.9712L694.017 13.0921L693.289 11.1525L692.562 10.9101ZM713.17 10.9101L712.2 11.1525L709.048 16.9712L709.291 18.1835L712.2 23.0324L712.443 23.2748H719.716L723.11 17.4561L719.716 11.1525H715.352L715.11 10.9101L713.897 11.1525L713.17 10.9101Z" fill="white" fill-opacity="0.07"/>
<path fill-rule="evenodd" clip-rule="evenodd" d="M646.016 52.9651H661.047C662.567 53.3046 663.739 53.9915 664.563 55.0259L666.624 58.5414L667.23 58.1777C667.31 57.9465 667.399 57.7186 667.495 57.4944L668.772 58.6012L667.715 60.481L672.079 68.4817L675.23 62.9054L675.715 62.4206H684.443L685.413 63.8752L688.807 69.9364L688.323 71.6335L684.928 77.4522L684.443 77.9371H675.715L671.109 70.6637L663.593 56.6018C663.353 56.1224 663.012 55.7007 662.594 55.3658C662.175 55.0309 661.689 54.7909 661.169 54.6623H645.894L644.44 55.3896L643.228 56.8443L641.1 60.5853L639.762 59.4252L641.046 57.208L643.591 53.9349L646.016 52.9651ZM637.721 62.9499L635.712 66.4209L634.5 69.3303L634.742 71.9972L642.258 85.0893C643.082 86.2853 644.335 87.0531 646.016 87.3925H661.047L663.714 86.1803L664.593 84.8958L664.32 85.2105L663.281 84.31L662.381 85.2105L661.169 85.6954H646.137L643.955 84.7256L636.197 71.3911V69.209L639.084 64.1311L637.721 62.9499ZM657.887 77.9371L658.592 77.1242L661.653 71.876L665.775 80.1191L665.375 80.831L666.63 81.9189L666.866 81.5738L668.927 85.3317C669.784 86.4308 671.036 87.1177 672.685 87.3925H687.474L689.898 86.4227L692.444 83.1497L694.296 79.9297L692.944 78.7587L689.535 84.7256L687.838 85.6954H672.564C671.271 85.3721 670.382 84.8064 669.897 83.9983L661.411 68.2393L658.017 62.4206H649.289L648.561 63.1479L645.167 68.9666L644.682 70.6637L649.289 77.9371H657.887ZM671.139 55.3594L671.351 55.1472L672.564 54.6623H687.838L689.777 56.117L696.566 67.7544L697.293 69.209V71.1486L694.967 75.2186L696.327 76.397L698.02 73.4519L698.99 71.0274L698.748 68.3605L691.232 55.2684C690.408 54.0723 689.155 53.3046 687.474 52.9651H672.685L669.775 54.1774L669.775 54.1775L671.139 55.3594ZM656.562 63.8752L656.32 64.1177H650.016L646.379 70.1788L649.774 75.9975L650.016 76.24H657.289L658.017 74.5429L660.441 70.6637V69.9364L658.017 66.0572L657.289 64.1177L656.562 63.8752ZM677.17 63.8752L676.2 64.1177L673.048 69.9364L673.291 71.1486L676.2 75.9975L676.443 76.24H683.716L687.11 70.4213L683.716 64.1177H679.352L679.11 63.8752L677.897 64.1177L677.17 63.8752Z" fill="white" fill-opacity="0.07"/>
<path fill-rule="evenodd" clip-rule="evenodd" d="M751.666 0H766.697C768.217 0.339425 769.389 1.02636 770.213 2.06079L772.274 5.57626L772.88 5.21259C772.96 4.98133 773.049 4.75342 773.145 4.52925L774.422 5.63603L773.365 7.51583L777.729 15.5166L780.881 9.9403L781.365 9.4554H790.093L791.063 10.9101L794.457 16.9712L793.973 18.6684L790.578 24.4871L790.093 24.972H781.365L776.759 17.6986L769.243 3.63669C769.003 3.15724 768.662 2.73553 768.244 2.40066C767.825 2.0658 767.339 1.82576 766.819 1.69712H751.545L750.09 2.42446L748.878 3.87914L746.75 7.62012L745.412 6.4601L746.696 4.24281L749.241 0.969785L751.666 0ZM743.371 9.98476L741.362 13.4558L740.15 16.3651L740.392 19.032L747.908 32.1241C748.732 33.3202 749.985 34.0879 751.666 34.4274H766.697L769.364 33.2151L770.243 31.9306L769.97 32.2453L768.931 31.3448L768.031 32.2454L766.819 32.7302H751.787L749.605 31.7605L741.847 18.4259V16.2439L744.734 11.1659L743.371 9.98476ZM763.538 24.972L764.242 24.1591L767.304 18.9108L771.425 27.154L771.025 27.8659L772.28 28.9538L772.516 28.6087L774.577 32.3666C775.434 33.4657 776.686 34.1526 778.335 34.4274H793.124L795.549 33.4576L798.094 30.1846L799.946 26.9645L798.595 25.7935L795.185 31.7605L793.488 32.7302H778.214C776.921 32.407 776.032 31.8413 775.547 31.0331L767.061 15.2741L763.667 9.4554H754.939L754.211 10.1827L750.817 16.0015L750.332 17.6986L754.939 24.972H763.538ZM776.789 2.39428L777.001 2.18202L778.214 1.69712H793.488L795.427 3.1518L802.216 14.7892L802.943 16.2439V18.1835L800.617 22.2535L801.977 23.4318L803.67 20.4867L804.64 18.0622L804.398 15.3953L796.882 2.30324C796.058 1.10717 794.805 0.339425 793.124 0H778.335L775.425 1.21223L775.425 1.21235L776.789 2.39428ZM762.212 10.9101L761.97 11.1525H755.666L752.029 17.2137L755.424 23.0324L755.666 23.2748H762.939L763.667 21.5777L766.091 17.6986V16.9712L763.667 13.0921L762.939 11.1525L762.212 10.9101ZM782.82 10.9101L781.85 11.1525L778.698 16.9712L778.941 18.1835L781.85 23.0324L782.093 23.2748H789.366L792.76 17.4561L789.366 11.1525H785.002L784.76 10.9101L783.547 11.1525L782.82 10.9101Z" fill="white" fill-opacity="0.07"/>
<path fill-rule="evenodd" clip-rule="evenodd" d="M715.666 52.9651H730.697C732.217 53.3046 733.389 53.9915 734.213 55.0259L736.274 58.5414L736.88 58.1777C736.96 57.9465 737.049 57.7186 737.145 57.4944L738.422 58.6012L737.365 60.481L741.729 68.4817L744.881 62.9054L745.365 62.4206H754.093L755.063 63.8752L758.457 69.9364L757.973 71.6335L754.578 77.4522L754.093 77.9371H745.365L740.759 70.6637L733.243 56.6018C733.003 56.1224 732.662 55.7007 732.244 55.3658C731.825 55.0309 731.339 54.7909 730.819 54.6623H715.545L714.09 55.3896L712.878 56.8443L710.75 60.5853L709.412 59.4252L710.696 57.208L713.241 53.9349L715.666 52.9651ZM707.371 62.9499L705.362 66.4209L704.15 69.3303L704.392 71.9972L711.908 85.0893C712.732 86.2853 713.985 87.0531 715.666 87.3925H730.697L733.364 86.1803L734.243 84.8958L733.97 85.2105L732.931 84.31L732.031 85.2105L730.819 85.6954H715.787L713.605 84.7256L705.847 71.3911V69.209L708.734 64.1311L707.371 62.9499ZM727.538 77.9371L728.242 77.1242L731.304 71.876L735.425 80.1191L735.025 80.831L736.28 81.9189L736.516 81.5738L738.577 85.3317C739.434 86.4308 740.686 87.1177 742.335 87.3925H757.124L759.549 86.4227L762.094 83.1497L763.946 79.9297L762.595 78.7587L759.185 84.7256L757.488 85.6954H742.214C740.921 85.3721 740.032 84.8064 739.547 83.9983L731.061 68.2393L727.667 62.4206H718.939L718.211 63.1479L714.817 68.9666L714.332 70.6637L718.939 77.9371H727.538ZM740.789 55.3594L741.001 55.1472L742.214 54.6623H757.488L759.427 56.117L766.216 67.7544L766.943 69.209V71.1486L764.617 75.2186L765.977 76.397L767.67 73.4519L768.64 71.0274L768.398 68.3605L760.882 55.2684C760.058 54.0723 758.805 53.3046 757.124 52.9651H742.335L739.425 54.1774L739.425 54.1775L740.789 55.3594ZM726.212 63.8752L725.97 64.1177H719.666L716.029 70.1788L719.424 75.9975L719.666 76.24H726.939L727.667 74.5429L730.091 70.6637V69.9364L727.667 66.0572L726.939 64.1177L726.212 63.8752ZM746.82 63.8752L745.85 64.1177L742.698 69.9364L742.941 71.1486L745.85 75.9975L746.093 76.24H753.366L756.76 70.4213L753.366 64.1177H749.002L748.76 63.8752L747.547 64.1177L746.82 63.8752Z" fill="white" fill-opacity="0.07"/>
<path fill-rule="evenodd" clip-rule="evenodd" d="M821.316 0H836.347C837.867 0.339425 839.038 1.02636 839.863 2.06079L841.924 5.57626L842.53 5.21259C842.61 4.98133 842.699 4.75342 842.795 4.52925L844.072 5.63603L843.015 7.51583L847.379 15.5166L850.53 9.9403L851.015 9.4554H859.743L860.713 10.9101L864.107 16.9712L863.623 18.6684L860.228 24.4871L859.743 24.972H851.015L846.409 17.6986L838.893 3.63669C838.653 3.15724 838.312 2.73553 837.894 2.40066C837.475 2.0658 836.989 1.82576 836.469 1.69712H821.194L819.74 2.42446L818.528 3.87914L816.4 7.62012L815.062 6.4601L816.345 4.24281L818.891 0.969785L821.316 0ZM813.021 9.98476L811.012 13.4558L809.799 16.3651L810.042 19.032L817.558 32.1241C818.382 33.3202 819.635 34.0879 821.316 34.4274H836.347L839.014 33.2151L839.893 31.9306L839.62 32.2453L838.581 31.3448L837.681 32.2454L836.469 32.7302H821.437L819.255 31.7605L811.497 18.4259V16.2439L814.384 11.1659L813.021 9.98476ZM833.187 24.972L833.892 24.1591L836.953 18.9108L841.075 27.154L840.675 27.8659L841.93 28.9538L842.166 28.6087L844.227 32.3666C845.083 33.4657 846.336 34.1526 847.985 34.4274H862.774L865.198 33.4576L867.744 30.1846L869.596 26.9645L868.244 25.7935L864.835 31.7605L863.138 32.7302H847.863C846.57 32.407 845.681 31.8413 845.197 31.0331L836.711 15.2741L833.317 9.4554H824.589L823.861 10.1827L820.467 16.0015L819.982 17.6986L824.589 24.972H833.187ZM846.439 2.39428L846.651 2.18202L847.863 1.69712H863.138L865.077 3.1518L871.866 14.7892L872.593 16.2439V18.1835L870.267 22.2535L871.627 23.4318L873.32 20.4867L874.29 18.0622L874.048 15.3953L866.532 2.30324C865.708 1.10717 864.455 0.339425 862.774 0H847.985L845.075 1.21223L845.075 1.21235L846.439 2.39428ZM831.862 10.9101L831.62 11.1525H825.316L821.679 17.2137L825.074 23.0324L825.316 23.2748H832.589L833.317 21.5777L835.741 17.6986V16.9712L833.317 13.0921L832.589 11.1525L831.862 10.9101ZM852.47 10.9101L851.5 11.1525L848.348 16.9712L848.591 18.1835L851.5 23.0324L851.743 23.2748H859.016L862.41 17.4561L859.016 11.1525H854.652L854.41 10.9101L853.197 11.1525L852.47 10.9101Z" fill="white" fill-opacity="0.07"/>
<path fill-rule="evenodd" clip-rule="evenodd" d="M785.316 52.9651H800.347C801.867 53.3046 803.038 53.9915 803.863 55.0259L805.924 58.5414L806.53 58.1777C806.61 57.9465 806.699 57.7186 806.795 57.4944L808.072 58.6012L807.015 60.481L811.379 68.4817L814.53 62.9054L815.015 62.4206H823.743L824.713 63.8752L828.107 69.9364L827.623 71.6335L824.228 77.4522L823.743 77.9371H815.015L810.409 70.6637L802.893 56.6018C802.653 56.1224 802.312 55.7007 801.894 55.3658C801.475 55.0309 800.989 54.7909 800.469 54.6623H785.194L783.74 55.3896L782.528 56.8443L780.4 60.5853L779.062 59.4252L780.345 57.208L782.891 53.9349L785.316 52.9651ZM777.021 62.9499L775.012 66.4209L773.799 69.3303L774.042 71.9972L781.558 85.0893C782.382 86.2853 783.635 87.0531 785.316 87.3925H800.347L803.014 86.1803L803.893 84.8958L803.62 85.2105L802.581 84.31L801.681 85.2105L800.469 85.6954H785.437L783.255 84.7256L775.497 71.3911V69.209L778.384 64.1311L777.021 62.9499ZM797.187 77.9371L797.892 77.1242L800.953 71.876L805.075 80.1191L804.675 80.831L805.93 81.9189L806.166 81.5738L808.227 85.3317C809.083 86.4308 810.336 87.1177 811.985 87.3925H826.774L829.198 86.4227L831.744 83.1497L833.596 79.9297L832.244 78.7587L828.835 84.7256L827.138 85.6954H811.863C810.57 85.3721 809.681 84.8064 809.197 83.9983L800.711 68.2393L797.317 62.4206H788.589L787.861 63.1479L784.467 68.9666L783.982 70.6637L788.589 77.9371H797.187ZM810.439 55.3594L810.651 55.1472L811.863 54.6623H827.138L829.077 56.117L835.866 67.7544L836.593 69.209V71.1486L834.267 75.2186L835.627 76.397L837.32 73.4519L838.29 71.0274L838.048 68.3605L830.532 55.2684C829.708 54.0723 828.455 53.3046 826.774 52.9651H811.985L809.075 54.1774L809.075 54.1775L810.439 55.3594ZM795.862 63.8752L795.62 64.1177H789.316L785.679 70.1788L789.074 75.9975L789.316 76.24H796.589L797.317 74.5429L799.741 70.6637V69.9364L797.317 66.0572L796.589 64.1177L795.862 63.8752ZM816.47 63.8752L815.5 64.1177L812.348 69.9364L812.591 71.1486L815.5 75.9975L815.743 76.24H823.016L826.41 70.4213L823.016 64.1177H818.652L818.41 63.8752L817.197 64.1177L816.47 63.8752Z" fill="white" fill-opacity="0.07"/>
<path fill-rule="evenodd" clip-rule="evenodd" d="M890.966 0H905.997C907.517 0.339425 908.688 1.02636 909.513 2.06079L911.574 5.57626L912.18 5.21259C912.26 4.98133 912.349 4.75342 912.445 4.52925L913.722 5.63603L912.665 7.51583L917.029 15.5166L920.18 9.9403L920.665 9.4554H929.393L930.363 10.9101L933.757 16.9712L933.273 18.6684L929.878 24.4871L929.393 24.972H920.665L916.059 17.6986L908.543 3.63669C908.303 3.15724 907.962 2.73553 907.544 2.40066C907.125 2.0658 906.639 1.82576 906.119 1.69712H890.844L889.39 2.42446L888.178 3.87914L886.05 7.62012L884.712 6.4601L885.996 4.24281L888.541 0.969785L890.966 0ZM882.671 9.98476L880.662 13.4558L879.449 16.3651L879.692 19.032L887.208 32.1241C888.032 33.3202 889.285 34.0879 890.966 34.4274H905.997L908.664 33.2151L909.543 31.9306L909.27 32.2453L908.231 31.3448L907.331 32.2454L906.119 32.7302H891.087L888.905 31.7605L881.147 18.4259V16.2439L884.034 11.1659L882.671 9.98476ZM902.837 24.972L903.542 24.1591L906.603 18.9108L910.725 27.154L910.325 27.8659L911.58 28.9538L911.816 28.6087L913.877 32.3666C914.733 33.4657 915.986 34.1526 917.635 34.4274H932.424L934.848 33.4576L937.394 30.1846L939.246 26.9645L937.894 25.7935L934.485 31.7605L932.788 32.7302H917.514C916.22 32.407 915.332 31.8413 914.847 31.0331L906.361 15.2741L902.967 9.4554H894.239L893.511 10.1827L890.117 16.0015L889.632 17.6986L894.239 24.972H902.837ZM916.089 2.39428L916.301 2.18202L917.514 1.69712H932.788L934.727 3.1518L941.516 14.7892L942.243 16.2439V18.1835L939.917 22.2535L941.277 23.4318L942.97 20.4867L943.94 18.0622L943.698 15.3953L936.182 2.30324C935.358 1.10717 934.105 0.339425 932.424 0H917.635L914.725 1.21223L914.725 1.21235L916.089 2.39428ZM901.512 10.9101L901.27 11.1525H894.966L891.329 17.2137L894.724 23.0324L894.966 23.2748H902.239L902.967 21.5777L905.391 17.6986V16.9712L902.967 13.0921L902.239 11.1525L901.512 10.9101ZM922.12 10.9101L921.15 11.1525L917.998 16.9712L918.241 18.1835L921.15 23.0324L921.393 23.2748H928.666L932.06 17.4561L928.666 11.1525H924.302L924.06 10.9101L922.847 11.1525L922.12 10.9101Z" fill="white" fill-opacity="0.07"/>
<path fill-rule="evenodd" clip-rule="evenodd" d="M854.966 52.9651H869.997C871.517 53.3046 872.688 53.9915 873.513 55.0259L875.574 58.5414L876.18 58.1777C876.26 57.9465 876.349 57.7186 876.445 57.4944L877.722 58.6012L876.665 60.481L881.029 68.4817L884.18 62.9054L884.665 62.4206H893.393L894.363 63.8752L897.757 69.9364L897.273 71.6335L893.878 77.4522L893.393 77.9371H884.665L880.059 70.6637L872.543 56.6018C872.303 56.1224 871.962 55.7007 871.544 55.3658C871.125 55.0309 870.639 54.7909 870.119 54.6623H854.844L853.39 55.3896L852.178 56.8443L850.05 60.5853L848.712 59.4252L849.996 57.208L852.541 53.9349L854.966 52.9651ZM846.671 62.9499L844.662 66.4209L843.449 69.3303L843.692 71.9972L851.208 85.0893C852.032 86.2853 853.285 87.0531 854.966 87.3925H869.997L872.664 86.1803L873.543 84.8958L873.27 85.2105L872.231 84.31L871.331 85.2105L870.119 85.6954H855.087L852.905 84.7256L845.147 71.3911V69.209L848.034 64.1311L846.671 62.9499ZM866.837 77.9371L867.542 77.1242L870.603 71.876L874.725 80.1191L874.325 80.831L875.58 81.9189L875.816 81.5738L877.877 85.3317C878.733 86.4308 879.986 87.1177 881.635 87.3925H896.424L898.848 86.4227L901.394 83.1497L903.246 79.9297L901.894 78.7587L898.485 84.7256L896.788 85.6954H881.514C880.22 85.3721 879.332 84.8064 878.847 83.9983L870.361 68.2393L866.967 62.4206H858.239L857.511 63.1479L854.117 68.9666L853.632 70.6637L858.239 77.9371H866.837ZM880.089 55.3594L880.301 55.1472L881.514 54.6623H896.788L898.727 56.117L905.516 67.7544L906.243 69.209V71.1486L903.917 75.2186L905.277 76.397L906.97 73.4519L907.94 71.0274L907.698 68.3605L900.182 55.2684C899.358 54.0723 898.105 53.3046 896.424 52.9651H881.635L878.725 54.1774L878.725 54.1775L880.089 55.3594ZM865.512 63.8752L865.27 64.1177H858.966L855.329 70.1788L858.724 75.9975L858.966 76.24H866.239L866.967 74.5429L869.391 70.6637V69.9364L866.967 66.0572L866.239 64.1177L865.512 63.8752ZM886.12 63.8752L885.15 64.1177L881.998 69.9364L882.241 71.1486L885.15 75.9975L885.393 76.24H892.666L896.06 70.4213L892.666 64.1177H888.302L888.06 63.8752L886.847 64.1177L886.12 63.8752Z" fill="white" fill-opacity="0.07"/>
<path fill-rule="evenodd" clip-rule="evenodd" d="M960.616 0H975.647C977.167 0.339425 978.338 1.02636 979.163 2.06079L981.224 5.57626L981.83 5.21259C981.91 4.98133 981.999 4.75342 982.095 4.52925L983.372 5.63603L982.315 7.51583L986.679 15.5166L989.83 9.9403L990.315 9.4554H999.043L1000.01 10.9101L1003.41 16.9712L1002.92 18.6684L999.528 24.4871L999.043 24.972H990.315L985.709 17.6986L978.193 3.63669C977.953 3.15724 977.612 2.73553 977.194 2.40066C976.775 2.0658 976.289 1.82576 975.769 1.69712H960.494L959.04 2.42446L957.827 3.87914L955.7 7.62012L954.362 6.4601L955.645 4.24281L958.191 0.969785L960.616 0ZM952.321 9.98476L950.312 13.4558L949.099 16.3651L949.342 19.032L956.858 32.1241C957.682 33.3202 958.935 34.0879 960.616 34.4274H975.647L978.314 33.2151L979.193 31.9306L978.92 32.2453L977.881 31.3448L976.981 32.2454L975.769 32.7302H960.737L958.555 31.7605L950.797 18.4259V16.2439L953.684 11.1659L952.321 9.98476ZM972.487 24.972L973.192 24.1591L976.253 18.9108L980.375 27.154L979.975 27.8659L981.23 28.9538L981.466 28.6087L983.527 32.3666C984.383 33.4657 985.636 34.1526 987.285 34.4274H1002.07L1004.5 33.4576L1007.04 30.1846L1008.9 26.9645L1007.54 25.7935L1004.13 31.7605L1002.44 32.7302H987.163C985.87 32.407 984.981 31.8413 984.497 31.0331L976.011 15.2741L972.617 9.4554H963.889L963.161 10.1827L959.767 16.0015L959.282 17.6986L963.889 24.972H972.487ZM985.739 2.39428L985.951 2.18202L987.163 1.69712H1002.44L1004.38 3.1518L1011.17 14.7892L1011.89 16.2439V18.1835L1009.57 22.2535L1010.93 23.4318L1012.62 20.4867L1013.59 18.0622L1013.35 15.3953L1005.83 2.30324C1005.01 1.10717 1003.75 0.339425 1002.07 0H987.285L984.375 1.21223L984.375 1.21235L985.739 2.39428ZM971.162 10.9101L970.92 11.1525H964.616L960.979 17.2137L964.374 23.0324L964.616 23.2748H971.889L972.617 21.5777L975.041 17.6986V16.9712L972.617 13.0921L971.889 11.1525L971.162 10.9101ZM991.77 10.9101L990.8 11.1525L987.648 16.9712L987.891 18.1835L990.8 23.0324L991.043 23.2748H998.316L1001.71 17.4561L998.316 11.1525H993.952L993.71 10.9101L992.497 11.1525L991.77 10.9101Z" fill="white" fill-opacity="0.07"/>
<path fill-rule="evenodd" clip-rule="evenodd" d="M924.616 52.9651H939.647C941.167 53.3046 942.338 53.9915 943.163 55.0259L945.224 58.5414L945.83 58.1777C945.91 57.9465 945.999 57.7186 946.095 57.4944L947.372 58.6012L946.315 60.481L950.679 68.4817L953.83 62.9054L954.315 62.4206H963.043L964.013 63.8752L967.407 69.9364L966.922 71.6335L963.528 77.4522L963.043 77.9371H954.315L949.709 70.6637L942.193 56.6018C941.953 56.1224 941.612 55.7007 941.194 55.3658C940.775 55.0309 940.289 54.7909 939.769 54.6623H924.494L923.04 55.3896L921.827 56.8443L919.7 60.5853L918.362 59.4252L919.645 57.208L922.191 53.9349L924.616 52.9651ZM916.321 62.9499L914.312 66.4209L913.099 69.3303L913.342 71.9972L920.858 85.0893C921.682 86.2853 922.935 87.0531 924.616 87.3925H939.647L942.314 86.1803L943.193 84.8958L942.92 85.2105L941.881 84.31L940.981 85.2105L939.769 85.6954H924.737L922.555 84.7256L914.797 71.3911V69.209L917.684 64.1311L916.321 62.9499ZM936.487 77.9371L937.192 77.1242L940.253 71.876L944.375 80.1191L943.975 80.831L945.23 81.9189L945.466 81.5738L947.527 85.3317C948.383 86.4308 949.636 87.1177 951.285 87.3925H966.074L968.498 86.4227L971.044 83.1497L972.896 79.9297L971.544 78.7587L968.135 84.7256L966.438 85.6954H951.163C949.87 85.3721 948.981 84.8064 948.497 83.9983L940.011 68.2393L936.617 62.4206H927.889L927.161 63.1479L923.767 68.9666L923.282 70.6637L927.889 77.9371H936.487ZM949.739 55.3594L949.951 55.1472L951.163 54.6623H966.438L968.377 56.117L975.166 67.7544L975.893 69.209V71.1486L973.567 75.2186L974.927 76.397L976.62 73.4519L977.59 71.0274L977.348 68.3605L969.832 55.2684C969.008 54.0723 967.755 53.3046 966.074 52.9651H951.285L948.375 54.1774L948.375 54.1775L949.739 55.3594ZM935.162 63.8752L934.92 64.1177H928.616L924.979 70.1788L928.374 75.9975L928.616 76.24H935.889L936.617 74.5429L939.041 70.6637V69.9364L936.617 66.0572L935.889 64.1177L935.162 63.8752ZM955.77 63.8752L954.8 64.1177L951.648 69.9364L951.891 71.1486L954.8 75.9975L955.043 76.24H962.316L965.71 70.4213L962.316 64.1177H957.952L957.71 63.8752L956.497 64.1177L955.77 63.8752Z" fill="white" fill-opacity="0.07"/>
<path fill-rule="evenodd" clip-rule="evenodd" d="M1030.27 0H1045.3C1046.82 0.339425 1047.99 1.02636 1048.81 2.06079L1050.87 5.57626L1051.48 5.21259C1051.56 4.98133 1051.65 4.75342 1051.74 4.52925L1053.02 5.63603L1051.96 7.51583L1056.33 15.5166L1059.48 9.9403L1059.97 9.4554H1068.69L1069.66 10.9101L1073.06 16.9712L1072.57 18.6684L1069.18 24.4871L1068.69 24.972H1059.97L1055.36 17.6986L1047.84 3.63669C1047.6 3.15724 1047.26 2.73553 1046.84 2.40066C1046.43 2.0658 1045.94 1.82576 1045.42 1.69712H1030.14L1028.69 2.42446L1027.48 3.87914L1025.35 7.62012L1024.01 6.4601L1025.3 4.24281L1027.84 0.969785L1030.27 0ZM1021.97 9.98476L1019.96 13.4558L1018.75 16.3651L1018.99 19.032L1026.51 32.1241C1027.33 33.3202 1028.58 34.0879 1030.27 34.4274H1045.3L1047.96 33.2151L1048.84 31.9306L1048.57 32.2453L1047.53 31.3448L1046.63 32.2454L1045.42 32.7302H1030.39L1028.2 31.7605L1020.45 18.4259V16.2439L1023.33 11.1659L1021.97 9.98476ZM1042.14 24.972L1042.84 24.1591L1045.9 18.9108L1050.02 27.154L1049.62 27.8659L1050.88 28.9538L1051.12 28.6087L1053.18 32.3666C1054.03 33.4657 1055.29 34.1526 1056.93 34.4274H1071.72L1074.15 33.4576L1076.69 30.1846L1078.55 26.9645L1077.19 25.7935L1073.78 31.7605L1072.09 32.7302H1056.81C1055.52 32.407 1054.63 31.8413 1054.15 31.0331L1045.66 15.2741L1042.27 9.4554H1033.54L1032.81 10.1827L1029.42 16.0015L1028.93 17.6986L1033.54 24.972H1042.14ZM1055.39 2.39428L1055.6 2.18202L1056.81 1.69712H1072.09L1074.03 3.1518L1080.82 14.7892L1081.54 16.2439V18.1835L1079.22 22.2535L1080.58 23.4318L1082.27 20.4867L1083.24 18.0622L1083 15.3953L1075.48 2.30324C1074.66 1.10717 1073.4 0.339425 1071.72 0H1056.93L1054.03 1.21223L1054.03 1.21235L1055.39 2.39428ZM1040.81 10.9101L1040.57 11.1525H1034.27L1030.63 17.2137L1034.02 23.0324L1034.27 23.2748H1041.54L1042.27 21.5777L1044.69 17.6986V16.9712L1042.27 13.0921L1041.54 11.1525L1040.81 10.9101ZM1061.42 10.9101L1060.45 11.1525L1057.3 16.9712L1057.54 18.1835L1060.45 23.0324L1060.69 23.2748H1067.97L1071.36 17.4561L1067.97 11.1525H1063.6L1063.36 10.9101L1062.15 11.1525L1061.42 10.9101Z" fill="white" fill-opacity="0.07"/>
<path fill-rule="evenodd" clip-rule="evenodd" d="M994.265 52.9651H1009.3C1010.82 53.3046 1011.99 53.9915 1012.81 55.0259L1014.87 58.5414L1015.48 58.1777C1015.56 57.9465 1015.65 57.7186 1015.74 57.4944L1017.02 58.6012L1015.96 60.481L1020.33 68.4817L1023.48 62.9054L1023.97 62.4206H1032.69L1033.66 63.8752L1037.06 69.9364L1036.57 71.6335L1033.18 77.4522L1032.69 77.9371H1023.97L1019.36 70.6637L1011.84 56.6018C1011.6 56.1224 1011.26 55.7007 1010.84 55.3658C1010.43 55.0309 1009.94 54.7909 1009.42 54.6623H994.144L992.69 55.3896L991.477 56.8443L989.35 60.5853L988.012 59.4252L989.295 57.208L991.841 53.9349L994.265 52.9651ZM985.971 62.9499L983.961 66.4209L982.749 69.3303L982.992 71.9972L990.508 85.0893C991.332 86.2853 992.585 87.0531 994.265 87.3925H1009.3L1011.96 86.1803L1012.84 84.8958L1012.57 85.2105L1011.53 84.31L1010.63 85.2105L1009.42 85.6954H994.387L992.205 84.7256L984.446 71.3911V69.209L987.334 64.1311L985.971 62.9499ZM1006.14 77.9371L1006.84 77.1242L1009.9 71.876L1014.02 80.1191L1013.62 80.831L1014.88 81.9189L1015.12 81.5738L1017.18 85.3317C1018.03 86.4308 1019.29 87.1177 1020.93 87.3925H1035.72L1038.15 86.4227L1040.69 83.1497L1042.55 79.9297L1041.19 78.7587L1037.78 84.7256L1036.09 85.6954H1020.81C1019.52 85.3721 1018.63 84.8064 1018.15 83.9983L1009.66 68.2393L1006.27 62.4206H997.538L996.811 63.1479L993.417 68.9666L992.932 70.6637L997.538 77.9371H1006.14ZM1019.39 55.3594L1019.6 55.1472L1020.81 54.6623H1036.09L1038.03 56.117L1044.82 67.7544L1045.54 69.209V71.1486L1043.22 75.2186L1044.58 76.397L1046.27 73.4519L1047.24 71.0274L1047 68.3605L1039.48 55.2684C1038.66 54.0723 1037.4 53.3046 1035.72 52.9651H1020.93L1018.03 54.1774L1018.03 54.1775L1019.39 55.3594ZM1004.81 63.8752L1004.57 64.1177H998.266L994.629 70.1788L998.023 75.9975L998.266 76.24H1005.54L1006.27 74.5429L1008.69 70.6637V69.9364L1006.27 66.0572L1005.54 64.1177L1004.81 63.8752ZM1025.42 63.8752L1024.45 64.1177L1021.3 69.9364L1021.54 71.1486L1024.45 75.9975L1024.69 76.24H1031.97L1035.36 70.4213L1031.97 64.1177H1027.6L1027.36 63.8752L1026.15 64.1177L1025.42 63.8752Z" fill="white" fill-opacity="0.07"/>
<path fill-rule="evenodd" clip-rule="evenodd" d="M1099.92 0H1114.95C1116.47 0.339425 1117.64 1.02636 1118.46 2.06079L1120.52 5.57626L1121.13 5.21259C1121.21 4.98133 1121.3 4.75342 1121.39 4.52925L1122.67 5.63603L1121.61 7.51583L1125.98 15.5166L1129.13 9.9403L1129.62 9.4554H1138.34L1139.31 10.9101L1142.71 16.9712L1142.22 18.6684L1138.83 24.4871L1138.34 24.972H1129.62L1125.01 17.6986L1117.49 3.63669C1117.25 3.15724 1116.91 2.73553 1116.49 2.40066C1116.08 2.0658 1115.59 1.82576 1115.07 1.69712H1099.79L1098.34 2.42446L1097.13 3.87914L1095 7.62012L1093.66 6.4601L1094.95 4.24281L1097.49 0.969785L1099.92 0ZM1091.62 9.98476L1089.61 13.4558L1088.4 16.3651L1088.64 19.032L1096.16 32.1241C1096.98 33.3202 1098.23 34.0879 1099.92 34.4274H1114.95L1117.61 33.2151L1118.49 31.9306L1118.22 32.2453L1117.18 31.3448L1116.28 32.2454L1115.07 32.7302H1100.04L1097.85 31.7605L1090.1 18.4259V16.2439L1092.98 11.1659L1091.62 9.98476ZM1111.79 24.972L1112.49 24.1591L1115.55 18.9108L1119.67 27.154L1119.27 27.8659L1120.53 28.9538L1120.77 28.6087L1122.83 32.3666C1123.68 33.4657 1124.94 34.1526 1126.58 34.4274H1141.37L1143.8 33.4576L1146.34 30.1846L1148.2 26.9645L1146.84 25.7935L1143.43 31.7605L1141.74 32.7302H1126.46C1125.17 32.407 1124.28 31.8413 1123.8 31.0331L1115.31 15.2741L1111.92 9.4554H1103.19L1102.46 10.1827L1099.07 16.0015L1098.58 17.6986L1103.19 24.972H1111.79ZM1125.04 2.39428L1125.25 2.18202L1126.46 1.69712H1141.74L1143.68 3.1518L1150.47 14.7892L1151.19 16.2439V18.1835L1148.87 22.2535L1150.23 23.4318L1151.92 20.4867L1152.89 18.0622L1152.65 15.3953L1145.13 2.30324C1144.31 1.10717 1143.05 0.339425 1141.37 0H1126.58L1123.68 1.21223L1123.68 1.21235L1125.04 2.39428ZM1110.46 10.9101L1110.22 11.1525H1103.92L1100.28 17.2137L1103.67 23.0324L1103.92 23.2748H1111.19L1111.92 21.5777L1114.34 17.6986V16.9712L1111.92 13.0921L1111.19 11.1525L1110.46 10.9101ZM1131.07 10.9101L1130.1 11.1525L1126.95 16.9712L1127.19 18.1835L1130.1 23.0324L1130.34 23.2748H1137.62L1141.01 17.4561L1137.62 11.1525H1133.25L1133.01 10.9101L1131.8 11.1525L1131.07 10.9101Z" fill="white" fill-opacity="0.07"/>
<path fill-rule="evenodd" clip-rule="evenodd" d="M1309.92 0H1324.95C1326.47 0.339425 1327.64 1.02636 1328.46 2.06079L1330.52 5.57626L1331.13 5.21259C1331.21 4.98133 1331.3 4.75342 1331.39 4.52925L1332.67 5.63603L1331.61 7.51583L1335.98 15.5166L1339.13 9.9403L1339.62 9.4554H1348.34L1349.31 10.9101L1352.71 16.9712L1352.22 18.6684L1348.83 24.4871L1348.34 24.972H1339.62L1335.01 17.6986L1327.49 3.63669C1327.25 3.15724 1326.91 2.73553 1326.49 2.40066C1326.08 2.0658 1325.59 1.82576 1325.07 1.69712H1309.79L1308.34 2.42446L1307.13 3.87914L1305 7.62012L1303.66 6.4601L1304.95 4.24281L1307.49 0.969785L1309.92 0ZM1301.62 9.98476L1299.61 13.4558L1298.4 16.3651L1298.64 19.032L1306.16 32.1241C1306.98 33.3202 1308.23 34.0879 1309.92 34.4274H1324.95L1327.61 33.2151L1328.49 31.9306L1328.22 32.2453L1327.18 31.3448L1326.28 32.2454L1325.07 32.7302H1310.04L1307.85 31.7605L1300.1 18.4259V16.2439L1302.98 11.1659L1301.62 9.98476ZM1321.79 24.972L1322.49 24.1591L1325.55 18.9108L1329.67 27.154L1329.27 27.8659L1330.53 28.9538L1330.77 28.6087L1332.83 32.3666C1333.68 33.4657 1334.94 34.1526 1336.58 34.4274H1351.37L1353.8 33.4576L1356.34 30.1846L1358.2 26.9645L1356.84 25.7935L1353.43 31.7605L1351.74 32.7302H1336.46C1335.17 32.407 1334.28 31.8413 1333.8 31.0331L1325.31 15.2741L1321.92 9.4554H1313.19L1312.46 10.1827L1309.07 16.0015L1308.58 17.6986L1313.19 24.972H1321.79ZM1335.04 2.39428L1335.25 2.18202L1336.46 1.69712H1351.74L1353.68 3.1518L1360.47 14.7892L1361.19 16.2439V18.1835L1358.87 22.2535L1360.23 23.4318L1361.92 20.4867L1362.89 18.0622L1362.65 15.3953L1355.13 2.30324C1354.31 1.10717 1353.05 0.339425 1351.37 0H1336.58L1333.68 1.21223L1333.68 1.21235L1335.04 2.39428ZM1320.46 10.9101L1320.22 11.1525H1313.92L1310.28 17.2137L1313.67 23.0324L1313.92 23.2748H1321.19L1321.92 21.5777L1324.34 17.6986V16.9712L1321.92 13.0921L1321.19 11.1525L1320.46 10.9101ZM1341.07 10.9101L1340.1 11.1525L1336.95 16.9712L1337.19 18.1835L1340.1 23.0324L1340.34 23.2748H1347.62L1351.01 17.4561L1347.62 11.1525H1343.25L1343.01 10.9101L1341.8 11.1525L1341.07 10.9101Z" fill="white" fill-opacity="0.07"/>
<path fill-rule="evenodd" clip-rule="evenodd" d="M1063.92 52.9651H1078.95C1080.47 53.3046 1081.64 53.9915 1082.46 55.0259L1084.52 58.5414L1085.13 58.1777C1085.21 57.9465 1085.3 57.7186 1085.39 57.4944L1086.67 58.6012L1085.61 60.481L1089.98 68.4817L1093.13 62.9054L1093.62 62.4206H1102.34L1103.31 63.8752L1106.71 69.9364L1106.22 71.6335L1102.83 77.4522L1102.34 77.9371H1093.62L1089.01 70.6637L1081.49 56.6018C1081.25 56.1224 1080.91 55.7007 1080.49 55.3658C1080.08 55.0309 1079.59 54.7909 1079.07 54.6623H1063.79L1062.34 55.3896L1061.13 56.8443L1059 60.5853L1057.66 59.4252L1058.95 57.208L1061.49 53.9349L1063.92 52.9651ZM1055.62 62.9499L1053.61 66.4209L1052.4 69.3303L1052.64 71.9972L1060.16 85.0893C1060.98 86.2853 1062.23 87.0531 1063.92 87.3925H1078.95L1081.61 86.1803L1082.49 84.8958L1082.22 85.2105L1081.18 84.31L1080.28 85.2105L1079.07 85.6954H1064.04L1061.85 84.7256L1054.1 71.3911V69.209L1056.98 64.1311L1055.62 62.9499ZM1075.79 77.9371L1076.49 77.1242L1079.55 71.876L1083.67 80.1191L1083.27 80.831L1084.53 81.9189L1084.77 81.5738L1086.83 85.3317C1087.68 86.4308 1088.94 87.1177 1090.58 87.3925H1105.37L1107.8 86.4227L1110.34 83.1497L1112.2 79.9297L1110.84 78.7587L1107.43 84.7256L1105.74 85.6954H1090.46C1089.17 85.3721 1088.28 84.8064 1087.8 83.9983L1079.31 68.2393L1075.92 62.4206H1067.19L1066.46 63.1479L1063.07 68.9666L1062.58 70.6637L1067.19 77.9371H1075.79ZM1089.04 55.3594L1089.25 55.1472L1090.46 54.6623H1105.74L1107.68 56.117L1114.47 67.7544L1115.19 69.209V71.1486L1112.87 75.2186L1114.23 76.397L1115.92 73.4519L1116.89 71.0274L1116.65 68.3605L1109.13 55.2684C1108.31 54.0723 1107.05 53.3046 1105.37 52.9651H1090.58L1087.68 54.1774L1087.68 54.1775L1089.04 55.3594ZM1074.46 63.8752L1074.22 64.1177H1067.92L1064.28 70.1788L1067.67 75.9975L1067.92 76.24H1075.19L1075.92 74.5429L1078.34 70.6637V69.9364L1075.92 66.0572L1075.19 64.1177L1074.46 63.8752ZM1095.07 63.8752L1094.1 64.1177L1090.95 69.9364L1091.19 71.1486L1094.1 75.9975L1094.34 76.24H1101.62L1105.01 70.4213L1101.62 64.1177H1097.25L1097.01 63.8752L1095.8 64.1177L1095.07 63.8752Z" fill="white" fill-opacity="0.07"/>
<path fill-rule="evenodd" clip-rule="evenodd" d="M1273.92 52.9651H1288.95C1290.47 53.3046 1291.64 53.9915 1292.46 55.0259L1294.52 58.5414L1295.13 58.1777C1295.21 57.9465 1295.3 57.7186 1295.39 57.4944L1296.67 58.6012L1295.61 60.481L1299.98 68.4817L1303.13 62.9054L1303.62 62.4206H1312.34L1313.31 63.8752L1316.71 69.9364L1316.22 71.6335L1312.83 77.4522L1312.34 77.9371H1303.62L1299.01 70.6637L1291.49 56.6018C1291.25 56.1224 1290.91 55.7007 1290.49 55.3658C1290.08 55.0309 1289.59 54.7909 1289.07 54.6623H1273.79L1272.34 55.3896L1271.13 56.8443L1269 60.5853L1267.66 59.4252L1268.95 57.208L1271.49 53.9349L1273.92 52.9651ZM1265.62 62.9499L1263.61 66.4209L1262.4 69.3303L1262.64 71.9972L1270.16 85.0893C1270.98 86.2853 1272.23 87.0531 1273.92 87.3925H1288.95L1291.61 86.1803L1292.49 84.8958L1292.22 85.2105L1291.18 84.31L1290.28 85.2105L1289.07 85.6954H1274.04L1271.85 84.7256L1264.1 71.3911V69.209L1266.98 64.1311L1265.62 62.9499ZM1285.79 77.9371L1286.49 77.1242L1289.55 71.876L1293.67 80.1191L1293.27 80.831L1294.53 81.9189L1294.77 81.5738L1296.83 85.3317C1297.68 86.4308 1298.94 87.1177 1300.58 87.3925H1315.37L1317.8 86.4227L1320.34 83.1497L1322.2 79.9297L1320.84 78.7587L1317.43 84.7256L1315.74 85.6954H1300.46C1299.17 85.3721 1298.28 84.8064 1297.8 83.9983L1289.31 68.2393L1285.92 62.4206H1277.19L1276.46 63.1479L1273.07 68.9666L1272.58 70.6637L1277.19 77.9371H1285.79ZM1299.04 55.3594L1299.25 55.1472L1300.46 54.6623H1315.74L1317.68 56.117L1324.47 67.7544L1325.19 69.209V71.1486L1322.87 75.2186L1324.23 76.397L1325.92 73.4519L1326.89 71.0274L1326.65 68.3605L1319.13 55.2684C1318.31 54.0723 1317.05 53.3046 1315.37 52.9651H1300.58L1297.68 54.1774L1297.68 54.1775L1299.04 55.3594ZM1284.46 63.8752L1284.22 64.1177H1277.92L1274.28 70.1788L1277.67 75.9975L1277.92 76.24H1285.19L1285.92 74.5429L1288.34 70.6637V69.9364L1285.92 66.0572L1285.19 64.1177L1284.46 63.8752ZM1305.07 63.8752L1304.1 64.1177L1300.95 69.9364L1301.19 71.1486L1304.1 75.9975L1304.34 76.24H1311.62L1315.01 70.4213L1311.62 64.1177H1307.25L1307.01 63.8752L1305.8 64.1177L1305.07 63.8752Z" fill="white" fill-opacity="0.07"/>
<path fill-rule="evenodd" clip-rule="evenodd" d="M1169.29 0H1184.32C1185.84 0.339425 1187.01 1.02636 1187.84 2.06079L1189.9 5.57626L1190.5 5.21259C1190.58 4.98133 1190.67 4.75342 1190.77 4.52925L1192.04 5.63603L1190.99 7.51583L1195.35 15.5166L1198.5 9.9403L1198.99 9.4554H1207.72L1208.69 10.9101L1212.08 16.9712L1211.59 18.6684L1208.2 24.4871L1207.72 24.972H1198.99L1194.38 17.6986L1186.87 3.63669C1186.63 3.15724 1186.28 2.73553 1185.87 2.40066C1185.45 2.0658 1184.96 1.82576 1184.44 1.69712H1169.17L1167.71 2.42446L1166.5 3.87914L1164.37 7.62012L1163.03 6.4601L1164.32 4.24281L1166.86 0.969785L1169.29 0ZM1160.99 9.98476L1158.98 13.4558L1157.77 16.3651L1158.01 19.032L1165.53 32.1241C1166.35 33.3202 1167.61 34.0879 1169.29 34.4274H1184.32L1186.99 33.2151L1187.87 31.9306L1187.59 32.2453L1186.55 31.3448L1185.65 32.2454L1184.44 32.7302H1169.41L1167.23 31.7605L1159.47 18.4259V16.2439L1162.36 11.1659L1160.99 9.98476ZM1181.16 24.972L1181.86 24.1591L1184.93 18.9108L1189.05 27.154L1188.65 27.8659L1189.9 28.9538L1190.14 28.6087L1192.2 32.3666C1193.06 33.4657 1194.31 34.1526 1195.96 34.4274H1210.75L1213.17 33.4576L1215.72 30.1846L1217.57 26.9645L1216.22 25.7935L1212.81 31.7605L1211.11 32.7302H1195.84C1194.54 32.407 1193.65 31.8413 1193.17 31.0331L1184.68 15.2741L1181.29 9.4554H1172.56L1171.83 10.1827L1168.44 16.0015L1167.95 17.6986L1172.56 24.972H1181.16ZM1194.41 2.39428L1194.62 2.18202L1195.84 1.69712H1211.11L1213.05 3.1518L1219.84 14.7892L1220.57 16.2439V18.1835L1218.24 22.2535L1219.6 23.4318L1221.29 20.4867L1222.26 18.0622L1222.02 15.3953L1214.5 2.30324C1213.68 1.10717 1212.43 0.339425 1210.75 0H1195.96L1193.05 1.21223L1193.05 1.21235L1194.41 2.39428ZM1179.83 10.9101L1179.59 11.1525H1173.29L1169.65 17.2137L1173.05 23.0324L1173.29 23.2748H1180.56L1181.29 21.5777L1183.71 17.6986V16.9712L1181.29 13.0921L1180.56 11.1525L1179.83 10.9101ZM1200.44 10.9101L1199.47 11.1525L1196.32 16.9712L1196.56 18.1835L1199.47 23.0324L1199.72 23.2748H1206.99L1210.38 17.4561L1206.99 11.1525H1202.62L1202.38 10.9101L1201.17 11.1525L1200.44 10.9101Z" fill="white" fill-opacity="0.07"/>
<path fill-rule="evenodd" clip-rule="evenodd" d="M1379.29 0H1394.32C1395.84 0.339425 1397.01 1.02636 1397.84 2.06079L1399.9 5.57626L1400.5 5.21259C1400.58 4.98133 1400.67 4.75342 1400.77 4.52925L1402.04 5.63603L1400.99 7.51583L1405.35 15.5166L1408.5 9.9403L1408.99 9.4554H1417.72L1418.69 10.9101L1422.08 16.9712L1421.59 18.6684L1418.2 24.4871L1417.72 24.972H1408.99L1404.38 17.6986L1396.87 3.63669C1396.63 3.15724 1396.28 2.73553 1395.87 2.40066C1395.45 2.0658 1394.96 1.82576 1394.44 1.69712H1379.17L1377.71 2.42446L1376.5 3.87914L1374.37 7.62012L1373.03 6.4601L1374.32 4.24281L1376.86 0.969785L1379.29 0ZM1370.99 9.98476L1368.98 13.4558L1367.77 16.3651L1368.01 19.032L1375.53 32.1241C1376.35 33.3202 1377.61 34.0879 1379.29 34.4274H1394.32L1396.99 33.2151L1397.87 31.9306L1397.59 32.2453L1396.55 31.3448L1395.65 32.2454L1394.44 32.7302H1379.41L1377.23 31.7605L1369.47 18.4259V16.2439L1372.36 11.1659L1370.99 9.98476ZM1391.16 24.972L1391.86 24.1591L1394.93 18.9108L1399.05 27.154L1398.65 27.8659L1399.9 28.9538L1400.14 28.6087L1402.2 32.3666C1403.06 33.4657 1404.31 34.1526 1405.96 34.4274H1420.75L1423.17 33.4576L1425.72 30.1846L1427.57 26.9645L1426.22 25.7935L1422.81 31.7605L1421.11 32.7302H1405.84C1404.54 32.407 1403.65 31.8413 1403.17 31.0331L1394.68 15.2741L1391.29 9.4554H1382.56L1381.83 10.1827L1378.44 16.0015L1377.95 17.6986L1382.56 24.972H1391.16ZM1404.41 2.39428L1404.62 2.18202L1405.84 1.69712H1421.11L1423.05 3.1518L1429.84 14.7892L1430.57 16.2439V18.1835L1428.24 22.2535L1429.6 23.4318L1431.29 20.4867L1432.26 18.0622L1432.02 15.3953L1424.5 2.30324C1423.68 1.10717 1422.43 0.339425 1420.75 0H1405.96L1403.05 1.21223L1403.05 1.21235L1404.41 2.39428ZM1389.83 10.9101L1389.59 11.1525H1383.29L1379.65 17.2137L1383.05 23.0324L1383.29 23.2748H1390.56L1391.29 21.5777L1393.71 17.6986V16.9712L1391.29 13.0921L1390.56 11.1525L1389.83 10.9101ZM1410.44 10.9101L1409.47 11.1525L1406.32 16.9712L1406.56 18.1835L1409.47 23.0324L1409.72 23.2748H1416.99L1420.38 17.4561L1416.99 11.1525H1412.62L1412.38 10.9101L1411.17 11.1525L1410.44 10.9101Z" fill="white" fill-opacity="0.07"/>
<path fill-rule="evenodd" clip-rule="evenodd" d="M1133.29 52.9651H1148.32C1149.84 53.3046 1151.01 53.9915 1151.84 55.0259L1153.9 58.5414L1154.5 58.1777C1154.58 57.9465 1154.67 57.7186 1154.77 57.4944L1156.04 58.6012L1154.99 60.481L1159.35 68.4817L1162.5 62.9054L1162.99 62.4206H1171.72L1172.69 63.8752L1176.08 69.9364L1175.59 71.6335L1172.2 77.4522L1171.72 77.9371H1162.99L1158.38 70.6637L1150.87 56.6018C1150.63 56.1224 1150.28 55.7007 1149.87 55.3658C1149.45 55.0309 1148.96 54.7909 1148.44 54.6623H1133.17L1131.71 55.3896L1130.5 56.8443L1128.37 60.5853L1127.03 59.4252L1128.32 57.208L1130.86 53.9349L1133.29 52.9651ZM1124.99 62.9499L1122.98 66.4209L1121.77 69.3303L1122.01 71.9972L1129.53 85.0893C1130.35 86.2853 1131.61 87.0531 1133.29 87.3925H1148.32L1150.99 86.1803L1151.87 84.8958L1151.59 85.2105L1150.55 84.31L1149.65 85.2105L1148.44 85.6954H1133.41L1131.23 84.7256L1123.47 71.3911V69.209L1126.36 64.1311L1124.99 62.9499ZM1145.16 77.9371L1145.86 77.1242L1148.93 71.876L1153.05 80.1191L1152.65 80.831L1153.9 81.9189L1154.14 81.5738L1156.2 85.3317C1157.06 86.4308 1158.31 87.1177 1159.96 87.3925H1174.75L1177.17 86.4227L1179.72 83.1497L1181.57 79.9297L1180.22 78.7587L1176.81 84.7256L1175.11 85.6954H1159.84C1158.54 85.3721 1157.65 84.8064 1157.17 83.9983L1148.68 68.2393L1145.29 62.4206H1136.56L1135.83 63.1479L1132.44 68.9666L1131.95 70.6637L1136.56 77.9371H1145.16ZM1158.41 55.3594L1158.62 55.1472L1159.84 54.6623H1175.11L1177.05 56.117L1183.84 67.7544L1184.57 69.209V71.1486L1182.24 75.2186L1183.6 76.397L1185.29 73.4519L1186.26 71.0274L1186.02 68.3605L1178.5 55.2684C1177.68 54.0723 1176.43 53.3046 1174.75 52.9651H1159.96L1157.05 54.1774L1157.05 54.1775L1158.41 55.3594ZM1143.83 63.8752L1143.59 64.1177H1137.29L1133.65 70.1788L1137.05 75.9975L1137.29 76.24H1144.56L1145.29 74.5429L1147.71 70.6637V69.9364L1145.29 66.0572L1144.56 64.1177L1143.83 63.8752ZM1164.44 63.8752L1163.47 64.1177L1160.32 69.9364L1160.56 71.1486L1163.47 75.9975L1163.72 76.24H1170.99L1174.38 70.4213L1170.99 64.1177H1166.62L1166.38 63.8752L1165.17 64.1177L1164.44 63.8752Z" fill="white" fill-opacity="0.07"/>
<path fill-rule="evenodd" clip-rule="evenodd" d="M1343.29 52.9651H1358.32C1359.84 53.3046 1361.01 53.9915 1361.84 55.0259L1363.9 58.5414L1364.5 58.1777C1364.58 57.9465 1364.67 57.7186 1364.77 57.4944L1366.04 58.6012L1364.99 60.481L1369.35 68.4817L1372.5 62.9054L1372.99 62.4206H1381.72L1382.69 63.8752L1386.08 69.9364L1385.59 71.6335L1382.2 77.4522L1381.72 77.9371H1372.99L1368.38 70.6637L1360.87 56.6018C1360.63 56.1224 1360.28 55.7007 1359.87 55.3658C1359.45 55.0309 1358.96 54.7909 1358.44 54.6623H1343.17L1341.71 55.3896L1340.5 56.8443L1338.37 60.5853L1337.03 59.4252L1338.32 57.208L1340.86 53.9349L1343.29 52.9651ZM1334.99 62.9499L1332.98 66.4209L1331.77 69.3303L1332.01 71.9972L1339.53 85.0893C1340.35 86.2853 1341.61 87.0531 1343.29 87.3925H1358.32L1360.99 86.1803L1361.87 84.8958L1361.59 85.2105L1360.55 84.31L1359.65 85.2105L1358.44 85.6954H1343.41L1341.23 84.7256L1333.47 71.3911V69.209L1336.36 64.1311L1334.99 62.9499ZM1355.16 77.9371L1355.86 77.1242L1358.93 71.876L1363.05 80.1191L1362.65 80.831L1363.9 81.9189L1364.14 81.5738L1366.2 85.3317C1367.06 86.4308 1368.31 87.1177 1369.96 87.3925H1384.75L1387.17 86.4227L1389.72 83.1497L1391.57 79.9297L1390.22 78.7587L1386.81 84.7256L1385.11 85.6954H1369.84C1368.54 85.3721 1367.65 84.8064 1367.17 83.9983L1358.68 68.2393L1355.29 62.4206H1346.56L1345.83 63.1479L1342.44 68.9666L1341.95 70.6637L1346.56 77.9371H1355.16ZM1368.41 55.3594L1368.62 55.1472L1369.84 54.6623H1385.11L1387.05 56.117L1393.84 67.7544L1394.57 69.209V71.1486L1392.24 75.2186L1393.6 76.397L1395.29 73.4519L1396.26 71.0274L1396.02 68.3605L1388.5 55.2684C1387.68 54.0723 1386.43 53.3046 1384.75 52.9651H1369.96L1367.05 54.1774L1367.05 54.1775L1368.41 55.3594ZM1353.83 63.8752L1353.59 64.1177H1347.29L1343.65 70.1788L1347.05 75.9975L1347.29 76.24H1354.56L1355.29 74.5429L1357.71 70.6637V69.9364L1355.29 66.0572L1354.56 64.1177L1353.83 63.8752ZM1374.44 63.8752L1373.47 64.1177L1370.32 69.9364L1370.56 71.1486L1373.47 75.9975L1373.72 76.24H1380.99L1384.38 70.4213L1380.99 64.1177H1376.62L1376.38 63.8752L1375.17 64.1177L1374.44 63.8752Z" fill="white" fill-opacity="0.07"/>
<path fill-rule="evenodd" clip-rule="evenodd" d="M1239.03 0.882751H1254.06C1255.58 1.22218 1256.75 1.90911 1257.57 2.94354L1259.63 6.45902L1260.24 6.09535C1260.32 5.86408 1260.41 5.63617 1260.5 5.412L1261.78 6.51878L1260.72 8.39859L1265.09 16.3993L1268.24 10.823L1268.73 10.3382H1277.45L1278.42 11.7928L1281.82 17.854L1281.33 19.5511L1277.94 25.3698L1277.45 25.8547H1268.73L1264.12 18.5813L1256.6 4.51945C1256.36 4.03999 1256.02 3.61828 1255.6 3.28341C1255.19 2.94855 1254.7 2.70851 1254.18 2.57988H1238.9L1237.45 3.30721L1236.24 4.76189L1234.11 8.50287L1232.77 7.34285L1234.06 5.12556L1236.6 1.85254L1239.03 0.882751ZM1230.73 10.8675L1228.72 14.3385L1227.51 17.2479L1227.75 19.9148L1235.27 33.0069C1236.09 34.2029 1237.34 34.9707 1239.03 35.3101H1254.06L1256.72 34.0979L1257.6 32.8134L1257.33 33.1281L1256.29 32.2276L1255.39 33.1281L1254.18 33.613H1239.15L1236.96 32.6432L1229.21 19.3087V17.1266L1232.09 12.0487L1230.73 10.8675ZM1250.9 25.8547L1251.6 25.0418L1254.66 19.7936L1258.78 28.0367L1258.38 28.7486L1259.64 29.8365L1259.88 29.4914L1261.94 33.2493C1262.79 34.3484 1264.05 35.0353 1265.69 35.3101H1280.48L1282.91 34.3403L1285.45 31.0673L1287.31 27.8473L1285.95 26.6763L1282.54 32.6432L1280.85 33.613H1265.57C1264.28 33.2897 1263.39 32.724 1262.91 31.9159L1254.42 16.1569L1251.03 10.3382H1242.3L1241.57 11.0655L1238.18 16.8842L1237.69 18.5813L1242.3 25.8547H1250.9ZM1264.15 3.27703L1264.36 3.06477L1265.57 2.57988H1280.85L1282.79 4.03455L1289.58 15.672L1290.3 17.1266V19.0662L1287.98 23.1362L1289.34 24.3146L1291.03 21.3695L1292 18.945L1291.76 16.2781L1284.24 3.18599C1283.42 1.98992 1282.16 1.22218 1280.48 0.882751H1265.69L1262.79 2.09498L1262.79 2.0951L1264.15 3.27703ZM1249.57 11.7928L1249.33 12.0353H1243.03L1239.39 18.0964L1242.78 23.9151L1243.03 24.1576H1250.3L1251.03 22.4605L1253.45 18.5813V17.854L1251.03 13.9748L1250.3 12.0353L1249.57 11.7928ZM1270.18 11.7928L1269.21 12.0353L1266.06 17.854L1266.3 19.0662L1269.21 23.9151L1269.45 24.1576H1276.73L1280.12 18.3389L1276.73 12.0353H1272.36L1272.12 11.7928L1270.91 12.0353L1270.18 11.7928Z" fill="white" fill-opacity="0.07"/>
<path fill-rule="evenodd" clip-rule="evenodd" d="M1449.03 0.882751H1464.06C1465.58 1.22218 1466.75 1.90911 1467.57 2.94354L1469.63 6.45902L1470.24 6.09535C1470.32 5.86408 1470.41 5.63617 1470.5 5.412L1471.78 6.51878L1470.72 8.39859L1475.09 16.3993L1478.24 10.823L1478.73 10.3382H1487.45L1488.42 11.7928L1491.82 17.854L1491.33 19.5511L1487.94 25.3698L1487.45 25.8547H1478.73L1474.12 18.5813L1466.6 4.51945C1466.36 4.03999 1466.02 3.61828 1465.6 3.28341C1465.19 2.94855 1464.7 2.70851 1464.18 2.57988H1448.9L1447.45 3.30721L1446.24 4.76189L1444.11 8.50287L1442.77 7.34285L1444.06 5.12556L1446.6 1.85254L1449.03 0.882751ZM1440.73 10.8675L1438.72 14.3385L1437.51 17.2479L1437.75 19.9148L1445.27 33.0069C1446.09 34.2029 1447.34 34.9707 1449.03 35.3101H1464.06L1466.72 34.0979L1467.6 32.8134L1467.33 33.1281L1466.29 32.2276L1465.39 33.1281L1464.18 33.613H1449.15L1446.96 32.6432L1439.21 19.3087V17.1266L1442.09 12.0487L1440.73 10.8675ZM1460.9 25.8547L1461.6 25.0418L1464.66 19.7936L1468.78 28.0367L1468.38 28.7486L1469.64 29.8365L1469.88 29.4914L1471.94 33.2493C1472.79 34.3484 1474.05 35.0353 1475.69 35.3101H1490.48L1492.91 34.3403L1495.45 31.0673L1497.31 27.8473L1495.95 26.6763L1492.54 32.6432L1490.85 33.613H1475.57C1474.28 33.2897 1473.39 32.724 1472.91 31.9159L1464.42 16.1569L1461.03 10.3382H1452.3L1451.57 11.0655L1448.18 16.8842L1447.69 18.5813L1452.3 25.8547H1460.9ZM1474.15 3.27703L1474.36 3.06477L1475.57 2.57988H1490.85L1492.79 4.03455L1499.58 15.672L1500.3 17.1266V19.0662L1497.98 23.1362L1499.34 24.3146L1501.03 21.3695L1502 18.945L1501.76 16.2781L1494.24 3.18599C1493.42 1.98992 1492.16 1.22218 1490.48 0.882751H1475.69L1472.79 2.09498L1472.79 2.0951L1474.15 3.27703ZM1459.57 11.7928L1459.33 12.0353H1453.03L1449.39 18.0964L1452.78 23.9151L1453.03 24.1576H1460.3L1461.03 22.4605L1463.45 18.5813V17.854L1461.03 13.9748L1460.3 12.0353L1459.57 11.7928ZM1480.18 11.7928L1479.21 12.0353L1476.06 17.854L1476.3 19.0662L1479.21 23.9151L1479.45 24.1576H1486.73L1490.12 18.3389L1486.73 12.0353H1482.36L1482.12 11.7928L1480.91 12.0353L1480.18 11.7928Z" fill="white" fill-opacity="0.07"/>
<path fill-rule="evenodd" clip-rule="evenodd" d="M1203.03 53.8479H1218.06C1219.58 54.1873 1220.75 54.8743 1221.57 55.9087L1223.63 59.4242L1224.24 59.0605C1224.32 58.8292 1224.41 58.6013 1224.5 58.3771L1225.78 59.4839L1224.72 61.3637L1229.09 69.3645L1232.24 63.7882L1232.73 63.3033H1241.45L1242.42 64.758L1245.82 70.8191L1245.33 72.5163L1241.94 78.335L1241.45 78.8199H1232.73L1228.12 71.5465L1220.6 57.4846C1220.36 57.0051 1220.02 56.5834 1219.6 56.2486C1219.19 55.9137 1218.7 55.6737 1218.18 55.545H1202.9L1201.45 56.2724L1200.24 57.727L1198.11 61.468L1196.77 60.308L1198.06 58.0907L1200.6 54.8177L1203.03 53.8479ZM1194.73 63.8327L1192.72 67.3037L1191.51 70.213L1191.75 72.8799L1199.27 85.972C1200.09 87.1681 1201.34 87.9358 1203.03 88.2753H1218.06L1220.72 87.063L1221.6 85.7785L1221.33 86.0933L1220.29 85.1927L1219.39 86.0933L1218.18 86.5781H1203.15L1200.96 85.6084L1193.21 72.2738V70.0918L1196.09 65.0138L1194.73 63.8327ZM1214.9 78.8199L1215.6 78.007L1218.66 72.7587L1222.78 81.0019L1222.38 81.7138L1223.64 82.8017L1223.88 82.4566L1225.94 86.2145C1226.79 87.3136 1228.05 88.0005 1229.69 88.2753H1244.48L1246.91 87.3055L1249.45 84.0325L1251.31 80.8124L1249.95 79.6414L1246.54 85.6084L1244.85 86.5781H1229.57C1228.28 86.2549 1227.39 85.6892 1226.91 84.881L1218.42 69.122L1215.03 63.3033H1206.3L1205.57 64.0306L1202.18 69.8494L1201.69 71.5465L1206.3 78.8199H1214.9ZM1228.15 56.2422L1228.36 56.0299L1229.57 55.545H1244.85L1246.79 56.9997L1253.58 68.6371L1254.3 70.0918V72.0314L1251.98 76.1014L1253.34 77.2797L1255.03 74.3346L1256 71.9101L1255.76 69.2432L1248.24 56.1511C1247.42 54.9551 1246.16 54.1873 1244.48 53.8479H1229.69L1226.79 55.0601L1226.79 55.0603L1228.15 56.2422ZM1213.57 64.758L1213.33 65.0004H1207.03L1203.39 71.0616L1206.78 76.8803L1207.03 77.1227H1214.3L1215.03 75.4256L1217.45 71.5465V70.8191L1215.03 66.94L1214.3 65.0004L1213.57 64.758ZM1234.18 64.758L1233.21 65.0004L1230.06 70.8191L1230.3 72.0314L1233.21 76.8803L1233.45 77.1227H1240.73L1244.12 71.304L1240.73 65.0004H1236.36L1236.12 64.758L1234.91 65.0004L1234.18 64.758Z" fill="white" fill-opacity="0.07"/>
<path fill-rule="evenodd" clip-rule="evenodd" d="M1413.03 53.8479H1428.06C1429.58 54.1873 1430.75 54.8743 1431.57 55.9087L1433.63 59.4242L1434.24 59.0605C1434.32 58.8292 1434.41 58.6013 1434.5 58.3771L1435.78 59.4839L1434.72 61.3637L1439.09 69.3645L1442.24 63.7882L1442.73 63.3033H1451.45L1452.42 64.758L1455.82 70.8191L1455.33 72.5163L1451.94 78.335L1451.45 78.8199H1442.73L1438.12 71.5465L1430.6 57.4846C1430.36 57.0051 1430.02 56.5834 1429.6 56.2486C1429.19 55.9137 1428.7 55.6737 1428.18 55.545H1412.9L1411.45 56.2724L1410.24 57.727L1408.11 61.468L1406.77 60.308L1408.06 58.0907L1410.6 54.8177L1413.03 53.8479ZM1404.73 63.8327L1402.72 67.3037L1401.51 70.213L1401.75 72.8799L1409.27 85.972C1410.09 87.1681 1411.34 87.9358 1413.03 88.2753H1428.06L1430.72 87.063L1431.6 85.7785L1431.33 86.0933L1430.29 85.1927L1429.39 86.0933L1428.18 86.5781H1413.15L1410.96 85.6084L1403.21 72.2738V70.0918L1406.09 65.0138L1404.73 63.8327ZM1424.9 78.8199L1425.6 78.007L1428.66 72.7587L1432.78 81.0019L1432.38 81.7138L1433.64 82.8017L1433.88 82.4566L1435.94 86.2145C1436.79 87.3136 1438.05 88.0005 1439.69 88.2753H1454.48L1456.91 87.3055L1459.45 84.0325L1461.31 80.8124L1459.95 79.6414L1456.54 85.6084L1454.85 86.5781H1439.57C1438.28 86.2549 1437.39 85.6892 1436.91 84.881L1428.42 69.122L1425.03 63.3033H1416.3L1415.57 64.0306L1412.18 69.8494L1411.69 71.5465L1416.3 78.8199H1424.9ZM1438.15 56.2422L1438.36 56.0299L1439.57 55.545H1454.85L1456.79 56.9997L1463.58 68.6371L1464.3 70.0918V72.0314L1461.98 76.1014L1463.34 77.2797L1465.03 74.3346L1466 71.9101L1465.76 69.2432L1458.24 56.1511C1457.42 54.9551 1456.16 54.1873 1454.48 53.8479H1439.69L1436.79 55.0601L1436.79 55.0603L1438.15 56.2422ZM1423.57 64.758L1423.33 65.0004H1417.03L1413.39 71.0616L1416.78 76.8803L1417.03 77.1227H1424.3L1425.03 75.4256L1427.45 71.5465V70.8191L1425.03 66.94L1424.3 65.0004L1423.57 64.758ZM1444.18 64.758L1443.21 65.0004L1440.06 70.8191L1440.3 72.0314L1443.21 76.8803L1443.45 77.1227H1450.73L1454.12 71.304L1450.73 65.0004H1446.36L1446.12 64.758L1444.91 65.0004L1444.18 64.758Z" fill="white" fill-opacity="0.07"/>
</svg>
