<svg width="65" height="35" viewBox="0 0 65 35" fill="none" xmlns="http://www.w3.org/2000/svg">
<path fill-rule="evenodd" clip-rule="evenodd" d="M11.5162 0H26.5479C28.0672 0.339425 29.239 1.02636 30.0633 2.06079L32.1241 5.57626L32.7302 5.21259C32.8107 4.98133 32.8992 4.75342 32.9955 4.52925L34.2725 5.63603L33.2151 7.51583L37.5792 15.5166L40.731 9.9403L41.2159 9.4554H49.9439L50.9137 10.9101L54.308 16.9712L53.8231 18.6684L50.4288 24.4871L49.9439 24.972H41.2159L36.6094 17.6986L29.0935 3.63669C28.8538 3.15724 28.5129 2.73553 28.0943 2.40066C27.6757 2.0658 27.1895 1.82576 26.6691 1.69712H11.395L9.9403 2.42446L8.72806 3.87914L6.60084 7.62012L5.26236 6.4601L6.54605 4.24281L9.09173 0.969785L11.5162 0ZM3.22176 9.98476L1.21223 13.4558L0 16.3651L0.242446 19.032L7.75828 32.1241C8.5826 33.3202 9.83524 34.0879 11.5162 34.4274H26.5479L29.2148 33.2151L30.0936 31.9306L29.8209 32.2453L28.7818 31.3448L27.8813 32.2454L26.6691 32.7302H11.6374L9.4554 31.7605L1.69712 18.4259V16.2439L4.58461 11.1659L3.22176 9.98476ZM23.388 24.972L24.0925 24.159L27.154 18.9108L31.2756 27.154L30.8751 27.8659L32.1304 28.9538L32.3666 28.6087L34.4274 32.3666C35.284 33.4657 36.5366 34.1526 38.1853 34.4274H52.9745L55.399 33.4576L57.9446 30.1846L59.7962 26.9645L58.445 25.7935L55.0353 31.7605L53.3382 32.7302H38.0641C36.771 32.407 35.882 31.8413 35.3972 31.0331L26.9115 15.2741L23.5173 9.4554H14.7892L14.0619 10.1827L10.6676 16.0015L10.1827 17.6986L14.7892 24.972H23.388ZM36.6396 2.39428L36.8518 2.18202L38.0641 1.69712H53.3382L55.2777 3.1518L62.0662 14.7892L62.7936 16.2439V18.1835L60.4679 22.2535L61.8275 23.4318L63.5209 20.4867L64.4907 18.0622L64.2483 15.3953L56.7324 2.30324C55.9081 1.10717 54.6555 0.339425 52.9745 0H38.1853L35.2759 1.21223L35.2758 1.21235L36.6396 2.39428ZM22.0626 10.9101L21.8202 11.1525H15.5166L11.8799 17.2137L15.2741 23.0324L15.5166 23.2748H22.7899L23.5173 21.5777L25.9417 17.6986V16.9712L23.5173 13.0921L22.7899 11.1525L22.0626 10.9101ZM42.6705 10.9101L41.7008 11.1525L38.549 16.9712L38.7914 18.1835L41.7008 23.0324L41.9432 23.2748H49.2166L52.6108 17.4561L49.2166 11.1525H44.8526L44.6101 10.9101L43.3979 11.1525L42.6705 10.9101Z" fill="black"/>
</svg>
